<svg id="Layer_1" data-name="Layer 1" xmlns="http://www.w3.org/2000/svg" viewBox="0 0 398.84 399.14"><defs><style>.cls-1{fill:#064057;}.cls-2{fill:#7cba95;}.cls-3{fill:#fefefe;}.cls-4{fill:#fe9423;}.cls-5{fill:#fefefd;}.cls-6{fill:#fd9424;}.cls-7{fill:#fdfdfd;}.cls-8{fill:#fc9625;}.cls-9{fill:#fd9524;}.cls-10{fill:#fc9624;}.cls-11,.cls-12{fill:#fff;stroke:#064057;stroke-miterlimit:10;}.cls-11{stroke-width:3px;}.cls-12{stroke-width:2px;}</style></defs><path class="cls-1" d="M251.75,282.47c-3.19,1.35-6.08,1.64-8.18-.84a8.41,8.41,0,0,1-1.29-8.47c2-5.85,5.51-10.89,9-15.91l4-5.7c-4.4.63-7.36,2.32-10.4,3.83s-5.89,2.91-8.89,4.25c-9.59,4.28-9.67,4.27-7.92,14.7,1.48,8.82,3.23,17.59,4.65,26.42.37,2.32,1.27,3.47,3.53,4,11.26,2.82,16.24,15.83,17.5,24.92.52,3.76-1.34,5.77-4.93,6.82-4.39,1.27-8.9,1.15-13.34,1.41a157.71,157.71,0,0,1-28.9-.57c-6.29-.79-8.73-3.31-9-9.59a39.9,39.9,0,0,1,3.17-16.45c5.07-12.87,3-26.18,2.37-39.4-.08-1.86-1-2.69-3-2.22a65.78,65.78,0,0,1-17.29,1.76c-3.15-.08-4.35,1-4.08,4.44,1.22,15.05,1.26,30.15,3,45.2,1.52,13.23-1.57,16-14.77,16.19-11.64.2-23.3.25-34.94,0s-16.13-4.52-10.28-17.67c5-11.31,16-15.3,27.75-16.16,8.63-.63,8.75-.24,8.17-8.94-.46-6.8-1.26-13.58-1.76-20.37-.13-1.81-.51-2.81-2.53-2.75a73.48,73.48,0,0,1-19.77-1.92c-1.3-.31-1.75,0-2.28,1.54-1.88,5.44-6.23,8.78-11.52,8.24-6.21-.63-12.54-.86-18.56-2.78-8.23-2.63-10.88-9.27-6.38-16.63,1.75-2.86-.23-6.33,1.54-8.6,4.71-6.06,1.5-9.64-2.7-14.18-5.6-6.06-5.23-16.2-.26-24.12,2.64-4.2,5.57-8.22,8-12.51s2.09-9.28,3.42-13.87c10.55-36.61,23.43-72.22,46.47-103.12,12-16.13,27-17.14,42.16-3.66,10.88,9.64,20.17,20.76,28.93,32.27,2.52,3.32,4.65,4.05,8.56,3.24,16.6-3.44,32.6-.78,47.82,6.24,11.8,5.44,16.56,16,18.76,28.08.83,4.55,1.44,9.15,2.09,13.73.8,5.51,1.29,10.85,5,15.71,4.36,5.76,4.33,13.17,4.4,20.08a143.15,143.15,0,0,1-3.52,35.11c-1.62,6.76-4,8.69-10.95,9.17-12.14.83-10.58-.35-9,11.62a96.65,96.65,0,0,1-1.13,31.25c-1.57,8.16-9.43,14.45-17.65,15-1.92.13-3.42,1.1-5.13,1.64-6.4,2-10.68-1.14-11.08-7.71C250.46,291.07,252,287.09,251.75,282.47Z"/><path class="cls-2" d="M245.43,250.92c-11.54,7.36-23.78,10.93-36.22,13.74-24.39,5.51-49.05,6.91-73.62,1.73-20-4.23-27-9-30.67-33.22-2.93-19.21,1-37.72,6.21-56A318.55,318.55,0,0,1,133,120.74c1.49-.29,2.12.88,3,1.49,7.65,5.44,13.33,5.45,20.86-.28,1.59-1.21,2.3-1.77,3.81.23,10.67,14.19,24,11.66,33.16-2.06.54-.82,1-1.7,1.47-2.55,9,5.52,14.88,5.37,23.12-1.06,2.26-1.76,2.49.09,3.26,1.08a208.94,208.94,0,0,1,18,26.87c6,10.73,11.66,21.6,17.5,32.4,1.52,2.81,1.95,4.9-2.33,5.19-16.51,1.13-29.82,21-27.71,40.66C228.45,235,233.91,244.41,245.43,250.92Z"/><path class="cls-3" d="M174,74.14c6.15.42,11.32,3.32,16,7.1,10.28,8.31,18.16,18.85,26.6,28.87,1.12,1.33.95,2,0,3.29-4.51,6-13.75,6.76-18.56,1-2.41-2.86-3.61-2-4.94.44a38.07,38.07,0,0,1-6.87,9.07c-6.09,5.85-11.92,6.1-18.51.78a19.38,19.38,0,0,1-1.83-1.68c-2.07-2.15-3.77-5.35-6.27-6.19s-4.11,3.12-6.54,4.43c-4.79,2.58-13.32,1-17-3.16-1.12-1.25-.52-2.1,0-3,6.2-11.89,12.79-23.54,21.79-33.59C162,76.77,167.33,73.89,174,74.14Z"/><path class="cls-4" d="M295.83,159.27c.17,7.38-6.35,13.2-15.92,14.17-11,1.11-18.75-3.67-22.39-13.89-3.86-10.8-.61-23.2,7.51-28.67,7.64-5.14,19.86-1.69,24.84,7.13A45.33,45.33,0,0,1,295.83,159.27Z"/><path class="cls-2" d="M258.64,242.06c-9.51-6.41-15.88-13.84-15.76-25.09.08-7.93,4.33-13.42,11.39-16.67,5.38-2.48,10.86-1.33,14.75,3.63,6.74,8.61,11.76,18.07,11.79,29.44,0,.83.06,1.67,0,2.49-.24,5.1,2.24,12.61-.89,14.69-4,2.63-10.82.91-16.44,1.09-2,.06-3.32-.59-2.61-2.88,2.49-8.06,0-15.35-3.2-22.61a67.13,67.13,0,0,1-2.85-8.45c-.33-1.18-.41-2.52-2-2.25s-1.06,1.85-1,2.89c.12,3.9,1.88,7.36,3.24,10.9C256.58,233.09,258.22,236.86,258.64,242.06Z"/><path class="cls-5" d="M145.12,334.22c-3.57-.18-10.71.7-17.8-.79-3.16-.67-4.62-2.14-4.47-5.36a18.07,18.07,0,0,1,8.46-14.88c13.84-9.32,30.39-8.11,45,.06,1.57.88,4.15,11.86,3.37,14.28-1.27,3.93-4,5.55-8.14,5.92A220.88,220.88,0,0,1,145.12,334.22Z"/><path class="cls-3" d="M224.88,334.34c-5.48,0-11,.14-16.45,0-6-.19-7.41-2-7.6-7.94-.14-4.08,1.16-7.82,2-11.67a5.22,5.22,0,0,1,3.63-3.73,52.82,52.82,0,0,1,28.23-3c7.78,1.26,11.23,7,13.77,13.49,4.17,10.7,2.83,12.61-8.67,12.83C234.85,334.42,229.87,334.35,224.88,334.34Z"/><path class="cls-6" d="M259,169.87c11.32,10,23,8.31,34.51,2.21,0,10.1.36,20.47-.1,30.81s-1.69,20.49-2.65,30.72a48.57,48.57,0,0,1-1,5.36c-.51,2.44-2.66,1.48-4.09,1.78-1.65.33-1.89-1.12-1.74-2.28,2.29-17-8.43-29.8-14.37-44.12C266.19,186.17,261.55,178.52,259,169.87Z"/><path class="cls-7" d="M276.59,292.79c.22-4.78.42-8.59.58-12.41,0-1.09.67-2.59-1-2.89-1.86-.35-2.1,1.43-2.26,2.6-.49,3.62-.69,7.27-1.13,10.89a12.11,12.11,0,0,1-1.07,3.79,2.88,2.88,0,0,1-3.2,1.87c-1.66-.36-1.77-1.76-1.67-3.15.23-3,.57-6,.71-8.94.07-1.52.92-3.84-1.51-4s-1.21,2.21-1.54,3.41c-.93,3.4-.7,6.93-.75,10.42s-1.59,5.89-5.22,5.89c-3.94,0-5-2.93-4.69-6.2.41-4.6,1.57-9.13,1-13.81-.22-1.82,1.18-2.48,2.6-3.14.94-.43,2.41-.84,1.47-2.48s-2.32-1.4-3.42-.6a57.49,57.49,0,0,0-4.83,4.28c-1.12,1-2.27,2.13-3.93,1.34s-1.06-2.28-1-3.54c.05-6,4.08-10.18,6.57-15.14,2.9-5.76,7.42-6.38,12.71-6.4,4.32,0,8.65-.07,13-.12,3,0,4.71,1.44,4.8,4.45.26,9.31.16,18.6-2,27.73A9.43,9.43,0,0,1,276.59,292.79Z"/><path class="cls-8" d="M265.45,195.28c-16,.71-24.2,7-26,20.61-1.34,9.93,3.54,17.52,10.74,23.89,1.87,1.66,6.23,2.87,3.52,6.19-2.33,2.87-6.27,2.64-9.53.35a30.63,30.63,0,0,1-12.67-17.83c-3.83-14.89,1-30.27,12.22-38.52a25.55,25.55,0,0,1,9.45-4.29C259.13,184.3,262.68,187.08,265.45,195.28Z"/><path class="cls-9" d="M279,125.61c-12.33-1.7-21.51,3.9-25.09,15.84a52.13,52.13,0,0,0-1.93,8.69,3.48,3.48,0,0,1-2.59,3.22c-1.38.36-1.53-1.41-2-2.38-5.11-9.86-11.17-19.15-17.27-28.4-1.83-2.77-1.68-3.61,1.88-4.19C248.5,115.68,264,118.72,279,125.61Z"/><path class="cls-2" d="M205.67,307.46c1.94-9.9,1.56-19,1.2-28.13-.12-3,.48-4.6,3.73-5.05,4.58-.63,9.92-3.49,13.35-1.93,2.33,1.07,2,8.06,2.77,12.43.86,5.06,1.11,10.28,2.47,15.19,1.07,3.9-.59,4.25-3.48,4.21A55,55,0,0,0,205.67,307.46Z"/><path class="cls-10" d="M298.46,175.87c5.65,6,6.75,13.69,7.24,21.44.77,12-.91,23.87-3,35.66-.27,1.46-.45,3.19-1.33,4.22a6.69,6.69,0,0,1-6.75,2c-2.15-.56-.9-2.94-.72-4.31,2.48-19,3-38.13,3.86-57.23C297.75,177.11,297.39,176.34,298.46,175.87Z"/><path class="cls-2" d="M176.86,299c0,3.32,1.3,8.19-.33,9.56-2.05,1.72-5.56-2.13-8.72-2.79-1.62-.34-3.19-1-4.82-1.24s-2.32-.86-2.19-2.55c.56-7.34-.63-14.61-1.05-21.9-.14-2.41.61-3,2.71-2.63.32.06.66,0,1,.06,12.21,1,12.25,1,13.16,13,.21,2.81,0,5.65,0,8.48Z"/><path class="cls-7" d="M102.71,264.4c-5.27-10.13-5.1-13.09,1.06-17.73,1.54,2.74,3.11,5.44,4.59,8.18,3.11,5.75,8.32,8.69,14.13,11,2.54,1,6.28,1.89,4.47,6.17-1.65,3.87-5.29,4.17-8.77,3.95-1.91-.12-3.44-1.29-2.16-3.75.3-.58,1.06-1.54-.25-2a1.45,1.45,0,0,0-2,1c-1,3.28-3.45,3.83-6.27,3-4-1.2-8.73-1-10.77-5.92-.85-2-1.19-4.11.42-5.56s2.17,1.32,3.48,1.57A12.32,12.32,0,0,0,102.71,264.4Z"/><path class="cls-2" d="M101.2,206.62c-.13,10.23-.87,19.4.69,28.48a1.84,1.84,0,0,1-1,2.09c-1.3.7-2.2-.11-3-.93-4.68-4.61-5-10.34-3.48-16.14C95.61,215.59,98.17,211.55,101.2,206.62Z"/><path class="cls-1" d="M173.08,218.35c-5.44-.33-11.09-.72-15.7-4.55-1.11-.92-3.32-1.81-1.79-3.86,1.76-2.35,2.7.12,3.83,1,7.78,5.86,16.28,4.08,24.71,2.22a21,21,0,0,0,9.6-4.94c.91-.82,2.12-2.31,3.36-1,1.47,1.5-.13,2.85-1.17,3.7C189.35,216.22,181.51,217.87,173.08,218.35Z"/><ellipse class="cls-11" cx="154.2" cy="166.41" rx="23.76" ry="29"/><ellipse class="cls-1" cx="148.52" cy="168.86" rx="14.62" ry="13.02"/><path class="cls-12" d="M178,166.41c0-16-10.64-29-23.76-29s-23.77,13-23.77,29Z"/><ellipse class="cls-11" cx="196.5" cy="166.41" rx="23.76" ry="29"/><ellipse class="cls-1" cx="190.84" cy="168.86" rx="14.62" ry="13.02"/><path class="cls-12" d="M220.26,166.41c0-16-10.64-29-23.76-29s-23.76,13-23.76,29Z"/></svg>