<svg id="Layer_1" data-name="Layer 1" xmlns="http://www.w3.org/2000/svg" viewBox="0 0 398.84 399.14"><defs><style>.cls-1{fill:#064057;}.cls-2{fill:#7cba95;}.cls-3{fill:#fefefe;}.cls-4{fill:#fdfefd;}.cls-5{fill:#fdfdfd;}.cls-6{fill:#fcfcfc;}.cls-7{fill:#f2f3f3;}.cls-8,.cls-9{fill:#fff;stroke:#064057;stroke-miterlimit:10;}.cls-8{stroke-width:3px;}.cls-9{stroke-width:2px;}</style></defs><path class="cls-1" d="M268.79,298.76C265,310,263.42,311.14,252,311.14c-1.93,0-2.21,1.09-2.61,2.3-4.69,14-17,18.72-32.31,11.79-4.64-2.1-9.14-4.54-13.6-7-4.89-2.72-8.6-2.18-12.5,2.3-7.08,8.15-16.32,11.45-27.19,10.23-9.46-1.07-18.93-9.44-20.51-18.87-.55-3.32-1.6-5.57-5.25-5.79a1.22,1.22,0,0,1-.46-.19c-5-2.85-9.08-2.79-12.38,2.77a6.88,6.88,0,0,1-6.46,3.06c-.93,0-2.44,0-2.76.6-2.2,3.83-5.72,3.39-8.77,2.26A106.67,106.67,0,0,1,90,306.91c-6-3.51-7.83-13.05-4.25-19.6,1.23-2.24,1.07-3.53-.06-5.63-2.63-4.86-1.34-9,3.5-11.81A21.63,21.63,0,0,1,100,266.66c10.68-.09,17.89-5.71,22.77-14.81.66-1.24,1.62-2.41.39-4-11.06-13.92-9.28-29.31-4.87-44.89,8.64-30.5,23.69-57.87,41.21-84,8.62-12.87,17.51-25.52,30.07-34.9,12.28-9.18,23.6-8.18,34.82,2.37C239.79,100.94,251,118.53,260.9,137c10.5,19.44,20.77,39,26.75,60.43,3.16,11.31,4.33,22.78.61,34.27a7.31,7.31,0,0,1-.91,2.28c-6,7.52-2.25,14.67.53,22,2.32,6.16,4.89,11.31,12.81,11.33,3,0,6,1.62,8.85,2.88,5.29,2.34,6.62,7.47,3.65,12.22-2.43,3.87.16,7.79,1,11.32,2.31,9.87-.9,15.67-10.77,16.88a7.19,7.19,0,0,0-3.78,1.76c-4.79,3.63-9.61,3.48-15.71,1.82C275.52,311.9,271.53,306.79,268.79,298.76Z"/><path class="cls-2" d="M247.33,119.75c15.54,26.81,30.81,53.39,38.2,83.57,2.88,11.75,3.1,23.34-4.06,34-2.4,3.59-.71,7.53.28,11.12a114.61,114.61,0,0,0,4.68,12.58c1.41,3.43,1.71,6-3.11,6.49a12.79,12.79,0,0,0-6,2.1c-4,3-5.81.6-7.66-2.42a43.44,43.44,0,0,1-6.42-22.18c-.12-5.15.16-10.32.2-15.47,0-1.1.18-2.62-1.44-2.69s-1.66,1.3-1.79,2.49c-.81,7.31-1.13,14.69.22,21.9.83,4.43-1,5.49-4.62,6.58-21.47,6.52-43.49,7.34-65.63,6.36-10.92-.49-21.88-1-32.67-3.36a89.07,89.07,0,0,1-18.29-6.23c-17.32-7.92-23.72-20.73-20.36-39.58,4-22.39,13.9-42.43,24-62.41,4.28-8.44,9.32-16.44,14.31-24.47,1.64-2.63,2.59-3.5,5.45-1.42,6.16,4.46,12.58,3.42,18.65-.36,2.17-1.35,3.17-1.86,4.93.79,5.59,8.42,13.29,10.37,22.46,6.16a25.18,25.18,0,0,0,4.31-2.47c4.72-3.45,8.71-7.65,15.5-2.57,3.25,2.42,8.43.71,12-2.34C242.63,124.14,244.67,122.18,247.33,119.75Z"/><path class="cls-3" d="M233.06,125.9a12.69,12.69,0,0,1-9.37-4.25c-1.84-2-2.91-1.8-4.65.07a44.84,44.84,0,0,1-6.75,5.86c-10.11,7.2-18.06,5.86-24.65-4.47-1.94-3-3.18-3.27-5.92-1.18-5.18,4-10.87,5.55-17,2.13-1.74-1-3.6-1.83-1.72-4.5,8.34-11.79,16.58-23.7,28.4-32.34,10.91-8,19.87-7.44,30,1.39a120,120,0,0,1,22.18,26.05c.64,1,1.61,1.83.69,3C241.16,121.64,237.69,125.08,233.06,125.9Z"/><path class="cls-4" d="M196.63,286.33c6.82-4.66,13-7.72,19.73-9.4,4.74-1.18,9.38.33,13.22,2.93,9.77,6.61,16.34,15.44,16.66,27.76.29,11.78-9.87,19.65-21.33,16.76A49.69,49.69,0,0,1,209,316.74c-4.82-3.32-4.26-9-5.56-13.84a57.53,57.53,0,0,1-1.86-11.22C201.37,288.81,200.41,287,196.63,286.33Z"/><path class="cls-2" d="M130.5,292c.72-5.87,2.25-12,10.39-12.8a61.3,61.3,0,0,1,18.81.58,194.83,194.83,0,0,1,34.62,10.5c2.78,1.15,4,2.61,4.24,5.78a50.9,50.9,0,0,0,2.29,12.17c1.31,4.16-1.15,4.24-3.39,3.2-10.14-4.67-21-5.71-31.84-7.2a68.84,68.84,0,0,0-12.42-.37,52.71,52.71,0,0,1-13.84-1.15C133,301.32,130.6,298.47,130.5,292Z"/><path class="cls-3" d="M122,291.61c-4.31,4.52-6.1,2.55-7.84-1.16a5.26,5.26,0,0,0-5.41-2.89c-3.4.56-4.94-.49-6-3.8-1.22-3.71-4.57-4.59-8.09-3.53-2.91.87-5.69.66-6.9-2s1.24-4.85,3.51-5.72c11.22-4.31,22.73-5.59,34.27-1.54,4.07,1.43,6.18,7.52,4.14,11.38a19.51,19.51,0,0,0-2.11,13c.93,5.07-1.78,8.2-4.76,11.31-1.29,1.34-2.88,3-5.15,1.4-2-1.4-2.78-3.27-1.93-5.61.67-1.83,1.16-3.76,3-4.93C120.44,296.44,121.52,294.89,122,291.61Z"/><path class="cls-5" d="M271.22,288c0-5.37-1.36-11.3,5-14.39,8.31-4,16.93-5.59,25.91-2.42,2.61.92,5.39,1.55,7.55,3.52,1.24,1.14,2.59,2.23,2,4.13a3.75,3.75,0,0,1-4.1,2.88c-5.78-.37-11.2-.09-12.53,7.26,0,.23-.5.62-.62.57-5-2-8.35,3.5-13.05,2.88-1.21-.16-2.5.18-2.87,1.43s.95,1.37,1.8,1.8c3.22,1.66,5.64,9.71,3.7,12.59-1.74,2.57-4,1.37-5.56,0-4.05-3.64-6.76-8.15-7.18-13.73C271.09,292.32,271.22,290.15,271.22,288Z"/><path class="cls-5" d="M266.9,284.29c-4.65-6.37-8.23-7.17-19-4.19-8.44,2.34-8.36,2.58-13.81-3.94-2.12-2.53-4.29-5-6.68-7.82,4.44-2.61,9.47-2.46,14.15-3.36a132.68,132.68,0,0,0,17.65-4.62c2.66-.9,3.58-.45,4.17,2.1a8.54,8.54,0,0,0,1.72,3.54C269.93,271.71,268.49,277.94,266.9,284.29Z"/><path class="cls-5" d="M191,315.64c-12.56,13.54-26.52,15.6-38.07,6.43a18.46,18.46,0,0,1-4.58-5.16c-1.52-2.62-3.06-5.85-1.66-8.42,1.14-2.08,4.21.06,6.43,0C166,308.4,177.75,314,191,315.64Z"/><path class="cls-2" d="M256.91,282.26c4.86.06,9.39,6.41,9,12.69a14.29,14.29,0,0,1-.65,3.91c-1.11,3.15-1.16,7.42-5.17,8.28-4.19.9-10.15-3.62-11.43-7.79-1.16-3.8-2.28-7.66-5-10.7-1.52-1.72-1.62-2.51.78-3.36C248.52,283.84,252.53,282.31,256.91,282.26Z"/><path class="cls-5" d="M167.77,266.55c-3.47,3.2-6.27,5.68-9,8.3-1.12,1.1-2.33.88-3.65.93-6.42.23-12.89-.94-19.26.85-1,.27-2.26.48-2.74-1.21-.37-1.31-.86-2.28.51-3.44a28.21,28.21,0,0,0,7.45-9.78c1.11-2.39,2.63-1.37,4.08-1C152.23,262.8,159.24,264.51,167.77,266.55Z"/><path class="cls-2" d="M162.23,276.59c3.69-6,7.49-8.86,14.55-6.17,6,2.29,12.66,3.11,20.25,3.74-4.79,2.92-8.64,5.25-12.47,7.62-1.16.71-2.27.28-3.36,0C175,280.09,168.78,278.38,162.23,276.59Z"/><path class="cls-5" d="M100.44,301.23c.2-7,2.55-10.46,7.21-10.54,5-.08,7.88,4,6,8.65a9.48,9.48,0,0,0-.33,7.65c1.24,3.14-.31,4.64-3.6,4.71C104.25,311.81,100.27,307.36,100.44,301.23Z"/><path class="cls-6" d="M303.82,284.7c5.93-.05,7.1,1.87,4.74,7.24-.61,1.4.52,1.6,1.12,2.26a7.26,7.26,0,0,1-2.21,11.8c-4.51,2.08-6.54,1-6.21-3.91.3-4.3-1.86-8-2.13-12.11C298.87,286.11,300.31,284.28,303.82,284.7Z"/><path class="cls-6" d="M95.6,282.78c4.25.1,6.55,3.68,4.81,7.08-2.23,4.37-3.67,8.86-2.62,13.84.53,2.55,0,3.57-2.79,2.32-3.52-1.59-6.08-4-7.19-7.71-.78-2.57-1-5.11,2.23-6.38-2.93-2.52-.66-4.65.71-6.6C91.93,283.65,94,283.19,95.6,282.78Z"/><path class="cls-2" d="M115.64,264.81c6.37-3.25,8.34-8.52,11-13.22,2.59,1.49,5,3,7.45,4.27,5.45,2.87,5.48,2.84,2.1,7.8-.75,1.1-1.55,2.16-2.31,3.25-1.82,2.57-3.46,4.94-6.7,1.24-1-1.17-3.32-1.29-5.06-1.79S118.68,265.53,115.64,264.81Z"/><path class="cls-6" d="M298.18,303.26c0,7.07-3.17,10.39-8.5,9.33-1.33-.26-3.07-.7-2.28-2.42,1.94-4.25.09-8.13-.89-12-.73-2.91.37-4.92,2.8-5.29,2.63-.39,6.21-1.79,7.74,2.11A17.82,17.82,0,0,1,298.18,303.26Z"/><path class="cls-7" d="M210.17,275.51c-6,2.11-11.53,5.42-17.11,8.46-1.93,1-3.42,1.46-5.53-.42,7-4.11,13.65-8.15,21.67-9C210.23,274.15,210.38,274.64,210.17,275.51Z"/><path class="cls-2" d="M220.26,273.52c5-2.94,5-2.94,8.54,1.7C225.77,275.18,223.26,273.32,220.26,273.52Z"/><path class="cls-2" d="M210.17,275.51l-1-.93c2.06-1.76,4.68-.67,7.32-1.8C214.61,275.2,212.13,274.66,210.17,275.51Z"/><path class="cls-1" d="M213.64,208.37c1.87,3,.83,4.7-.45,6.26-6.53,8-24.07,9.56-31.93,2.91a9.3,9.3,0,0,1-3-3.86,1.94,1.94,0,0,1,.63-2.24A1.46,1.46,0,0,1,181,212c4,5.69,10,5.7,16,6s10.67-1.75,14.18-6.59C211.88,210.49,212.63,209.62,213.64,208.37Z"/><ellipse class="cls-8" cx="175.48" cy="168.73" rx="23.76" ry="29"/><ellipse class="cls-1" cx="169.81" cy="171.18" rx="14.62" ry="13.02"/><path class="cls-9" d="M199.25,168.73c0-16-10.64-29-23.77-29s-23.76,13-23.76,29Z"/><ellipse class="cls-8" cx="217.78" cy="168.73" rx="23.76" ry="29"/><ellipse class="cls-1" cx="212.13" cy="171.18" rx="14.62" ry="13.02"/><path class="cls-9" d="M241.55,168.73c0-16-10.64-29-23.77-29s-23.76,13-23.76,29Z"/></svg>