<svg id="Layer_1" data-name="Layer 1" xmlns="http://www.w3.org/2000/svg" viewBox="0 0 398.84 399.14"><defs><style>.cls-1{fill:#064057;}.cls-2{fill:#7cba95;}.cls-3{fill:#fefefe;}.cls-4{fill:#fbfcfb;}.cls-5{fill:#f8f8f8;}.cls-6{fill:#71858a;}.cls-7,.cls-8{fill:#fff;stroke:#064057;stroke-miterlimit:10;}.cls-7{stroke-width:3px;}.cls-8{stroke-width:2px;}</style></defs><path class="cls-1" d="M192.31,260.35c-8.36-2.12-16.91-3.24-24.95-6.28-12.39-4.68-24.14-10.53-27.31-24.83-1.6-7.24-4.21-12.54-11-16.05-4.31-2.23-5.44-8.62-9.42-10.51-3.81-1.81-9.11-.33-13.59-1.92-11-3.93-16.73-12.21-18.25-23.31-1.34-9.77,1.82-18.34,9.54-24.79,1.88-1.58,3-2.91,3.16-5.63.24-4.34,3.3-7.07,7.16-8.74,5.44-2.36,11.36-3.1,17-4.89,4.21-1.33,8.94.19,13.59-1.09,3.84-1.05,5.35,2.45,6,6.19-2.35-.09-2.31-2.22-3.75-2.74s-2.94-.88-4.26,0c-1.78,1.2-.12,2.36.39,3.36,1.56,3.12.58,7,2.82,9.84a3.2,3.2,0,0,0,2.5-2.29c1.95-4.31,5.14-6.07,9.87-5.48,4,.5,5.91-2.6,7.75-5.3,8.28-12.18,16.28-24.56,24.68-36.66,6.06-8.73,12.51-17.21,21.08-23.78,12-9.18,22.21-9.23,34.35-.22,9.23,6.86,16,16,22.27,25.32,18.41,27.24,33.37,56.23,43.46,87.59a116.87,116.87,0,0,1,5.86,29.51c.89,16.38-9.55,33.63-30,38.47-6.58,1.56-13.24,2.76-19.88,4.06-1.67.32-3.17.2-2.85,2.87,1.58,13,2,26.14,4.53,39.05.6,3,1.46,4.1,4.7,4.11,11.47,0,23.49,11.41,24.4,22.75.49,6-1.57,8.37-7.67,9.18-12.75,1.68-25.55,1.45-38.34.92-10.16-.42-14.82-5.53-11.3-14.91,7.41-19.75,3.57-39.55,2.43-59.43-.12-2.12-.92-2.43-2.75-2.23a104.08,104.08,0,0,1-20.43.13c-1.87-.17-2.81.46-2.83,2.42-.1,9.66-2.21,19.13-2.88,28.74s.46,19.2,2.42,28.69c2.23,10.75-1.43,15.37-12.39,16.66a160.38,160.38,0,0,1-37.8,0c-9.24-1.09-12.11-5.25-9.91-14.26,2.69-11,12.3-22.56,29.65-20.74,4.53.48,5.9-.32,6.18-5.41.62-11.24,2.43-22.41,3.89-33.6C190.6,263.53,191.59,262.07,192.31,260.35Z"/><path class="cls-2" d="M173.79,190.54c1.83,4.54,4.16,8.08,4.78,12.51.52,3.74,2.51,7,7,7.17,2.84.11,2.8,2.56,3.52,4.22,4.62,10.62,11,19.8,21.37,25.49,12.92,7.13,26.05,4.6,39-.25A43.61,43.61,0,0,0,262.78,232c.9-.78,2.61-1.63,1.39-3.16s-2.34,0-3.34.69a58,58,0,0,1-29.44,11c-13.41,1.29-23.67-3.77-31-14.83-2.66-4-4.74-8.37-7.09-12.56-.94-1.67-1.11-2.88,1.27-3.52,3.93-1,7.08-3.52,10.14-6.38,5.24,7.9,11.6,13.92,21.26,15.31,10.26,1.47,19.32-1.72,27.83-7.06,1.15-.73,3.1-1.51,1.77-3.33-1.1-1.51-2.49-.06-3.45.56-7,4.55-14.63,7-23.07,6.57-9.24-.48-16.95-4.82-20.45-12.88-2.19-5-4.37-11.55-.62-17.82,4.5-7.53,5.55-15.7,3.42-24.45-1.61-6.64,7.52-14.59,15-13.55a18.56,18.56,0,0,1,9.6,3.79c1.09.91,2.47,2.44,3.76.66s-.26-2.94-1.69-4c-10.74-7.64-23.37-4.42-29.71,7.6-14.34-11.52-30.48-15.53-49.84-10.55,5.63-8.45,10.4-15.56,15.09-22.72,1.17-1.77,2-.85,3.13,0,6.64,4.81,13.31,4.47,19.77-.3,1.83-1.35,2.67-2,4.44.46,10.1,14.13,24.26,13.5,33.62-1.48,1.88-3,2.73-4.06,6.28-1.61,8.38,5.77,15.62,3.49,24-7,4.6,6.16,8.07,12.86,11.59,19.47,12.91,24.2,24.72,48.89,30.1,76.07,2.18,11,2.31,21.81-4.48,31.63-5,7.22-12.08,11.18-20.26,13.59-23.11,6.8-46.71,7.9-70.59,6.5-13.5-.79-26.79-2.57-39.67-6.64-14.64-4.64-26.7-12.3-29.76-28.86-1.39-7.55-1.65-15.2.95-22.66.55-1.58.91-3.39,3.31-2.41C157.05,202.66,166.23,200.12,173.79,190.54Z"/><path class="cls-3" d="M249.54,118c-4.38-.24-7.85-2.61-11-5.19-2.19-1.75-3.14-1.64-4.25.88a30.59,30.59,0,0,1-6.91,10.23c-7.23,6.81-16.17,5.57-23.09-3.2-1.61-2-2.19-5.79-4.61-6-1.81-.14-3.75,2.91-5.82,4.26a12.86,12.86,0,0,1-8.43,2.3c-7.53-.76-9.32-4.06-5.21-10.17,6.93-10.33,14-20.58,23-29.29,13.06-12.63,25.44-12.73,38.72-.32,7.44,7,13.21,15.31,19.24,23.43,1.39,1.87,1.22,3.45-.1,5.38C257.57,115.36,253.71,118.09,249.54,118Z"/><path class="cls-3" d="M179.22,337c-6.79-.35-13.62-.27-20.28-1.85-5.45-1.29-6.63-3.44-5.23-9.05,3.32-13.33,16-21.34,29.65-18.66a55.38,55.38,0,0,1,19.71,7.65c3.61,2.33,5.85,8.85,4.9,14.15-.81,4.55-4.15,5.33-7.93,6A127.36,127.36,0,0,1,179.22,337Z"/><path class="cls-3" d="M202.69,191.57c1.6,8.91-1,12.44-10.59,15.11-5.46,1.52-8,.49-9.8-4,.84-.75,1.49,0,2.22.27,1.14.39,2.49.7,2.91-.79.36-1.26-1.13-1.33-1.88-1.72-5.76-2.94-9.75-10.34-8-16.51,3.06-11,1.74-20.6-7.16-28.5-2.3-2-1.17-4.35.47-6.13,2.07-2.27,3.17.35,4.35,1.33a16.17,16.17,0,0,1,4.86,6.2c.43,1-.18,3.17,2.11,2.31,1.61-.6,1.39-2.28,1-3.47-.86-3-3.18-5-5.28-7.09a37.94,37.94,0,0,0-3.56-2.8c4.09-1.84,8.1-.48,10.92,3.66a55.65,55.65,0,0,1,5.73,12c.37,1,.24,2.65,2.1,1.8a2.14,2.14,0,0,0,1-3c-.94-2.43-2-4.8-3.56-8.37,3.45,1.77,5.69,3.16,6.94,5.61a49.83,49.83,0,0,1,5.61,23.87c-.07,3.87-1.22,7.48-4.46,10.14-.86.7-2.69,1.71-1.16,3.1,1,.87,2-.5,2.87-1.17Z"/><path class="cls-3" d="M261.71,336.21c-6.29-.16-12.6.25-18.87-1-4-.81-5.83-3-5.53-6.88a44.89,44.89,0,0,1,3-12,2.83,2.83,0,0,1,2-2.08c7.93-1.46,15.35-5.24,23.63-5.13,10.72.15,21.34,9.18,23.12,19.74.66,3.9-.89,5.81-4.93,6.3A184.44,184.44,0,0,1,261.71,336.21Z"/><path class="cls-2" d="M242.8,310.76c0-12.48-.1-24.41-1.48-36.24-.5-4.25.78-5.7,4.88-6.32,9.44-1.43,9.25-1.6,10.14,7.8q1.31,13.83,3.31,27.59c.31,2.1.3,3-1.87,3.46C252.82,308.18,247.9,309.48,242.8,310.76Z"/><path class="cls-2" d="M205.29,312.13c-3.62-1.72-6.59-3.93-9.86-4.52-6.2-1.11-6.81-4.77-6.05-9.89q2-13.77,3.66-27.59c.28-2.29.77-3.51,3.32-2.46a7,7,0,0,0,2,.3c9.92,1.07,9.78,1,8.34,11.36-.75,5.41-1.1,10.9-1.33,16.36C205.11,301,205.29,306.3,205.29,312.13Z"/><path class="cls-2" d="M136.91,213.55c-5.63-2.89-10.09-6.45-11.87-12.68-.35-1.23-.8-2,.62-2.84,3-1.77,5.89-3.74,7.62-6.93a1.16,1.16,0,0,1,1.58-.68c1.78.62,5,7.45,4.58,9.35C138.54,204.24,137.79,208.74,136.91,213.55Z"/><path class="cls-2" d="M109.49,191.42a17.66,17.66,0,0,1-12-25.9,21.54,21.54,0,0,1,14.71-11c5-1.17,7.88,2.23,10.44,6-4.31-1.64-8.72-2.43-13-.83a16.68,16.68,0,0,0-9.61,8.92C96.47,176.46,99.48,184.2,109.49,191.42Z"/><path class="cls-2" d="M163.72,158c-8.67-2-15.21.44-19.06,7.38-4.51,8.12-2.55,15.86,3.92,22.76-6.64-2-9.8-6.23-10.15-13.13-.43-8.43,4.8-17.23,12.13-20C155.11,153.34,159.5,153.37,163.72,158Z"/><path class="cls-4" d="M127.26,136.25c3.5-.41,5.36,2,6.58,5.11a7.92,7.92,0,0,1-1.53,8.76c-.85.94-1.91,1.78-2.86.47-1.36-1.87-5.5-.26-5.09-4.26a7.71,7.71,0,0,0-.81-5.29C120.87,136.87,123.52,136.29,127.26,136.25Z"/><path class="cls-5" d="M116.65,145.88c-3.39.12-6.35.11-9.21,1.18-.83.31-2.36.35-2.78-.15-.81-1,0-2.14.73-3.07,3-3.63,7.12-4.77,11.51-4.46a4.68,4.68,0,0,1,4.29,5.17C120.88,148.52,117.85,145.21,116.65,145.88Z"/><path class="cls-3" d="M116.72,163.11c-6.56,2.21-10.92,6.59-13.66,13.49C101.93,167.34,108.28,161.28,116.72,163.11Z"/><path class="cls-3" d="M148.4,167.19c2.28-4.8,4.43-6,10.26-5.5C155.42,164.67,151.16,164.61,148.4,167.19Z"/><path class="cls-6" d="M201.1,155.85c3.15.49,4.65,2.44,5,5.41Z"/><path class="cls-1" d="M177.88,160.35c3.17,1.47,3.26,4.26,4.54,7.64C178.23,166,178.57,162.86,177.88,160.35Z"/><ellipse class="cls-2" cx="225.88" cy="153.01" rx="17.7" ry="21.07" transform="translate(-46.86 146.24) rotate(-32.69)"/><ellipse class="cls-7" cx="237.28" cy="162.59" rx="23.76" ry="29"/><ellipse class="cls-1" cx="231.62" cy="165.04" rx="14.62" ry="13.02"/><path class="cls-8" d="M261,162.59c0-16-10.64-29-23.76-29s-23.77,13-23.77,29Z"/></svg>