<svg id="Layer_1" data-name="Layer 1" xmlns="http://www.w3.org/2000/svg" viewBox="0 0 398.84 399.14"><defs><style>.cls-1{fill:#064057;}.cls-2{fill:#7cba95;}.cls-3{fill:#fefefe;}.cls-4{fill:#fdfdfd;}.cls-5{fill:#f8f9f8;}.cls-6{fill:#fbfbfb;}.cls-7{fill:#fafbfb;}.cls-8{fill:#f9f9f9;}.cls-9{fill:#dcdede;}.cls-10{fill:#fcfcfc;}.cls-11{fill:#e5656a;}.cls-12,.cls-13{fill:#fff;stroke:#064057;stroke-miterlimit:10;}.cls-12{stroke-width:3px;}.cls-13{stroke-width:2px;}</style></defs><path class="cls-1" d="M134.58,215.8c10.47-32.79,28.89-60.59,50.24-86.68,8-9.77,15.63-19.86,25-28.49a72.84,72.84,0,0,1,11.41-8.79c9.32-5.7,18-5.33,26.76,1.19s14.36,15.67,19.54,24.88c17.13,30.48,30.18,62.64,37,97,1,5.23,2.42,9.17,6.48,12.58,7.93,6.67,8.35,15.06,6.15,24.77-2.16,9.51-6.39,18.14-9.47,27.22-3.66,10.81-16.09,13.32-23.41,5.3-4.11-4.5-10.2-7.2-13.43-12.86a2.55,2.55,0,0,0-3.49-1c-4.82,2.28-10.12,2.81-15.32,4.08,4,12.44,8,24.67,10.41,37.29.66,3.45,3.07,3,5.12,3.3,11.33,1.86,20.63,11.58,21.65,22.79.55,6-1.1,8.5-7,9.21a167.28,167.28,0,0,1-39.31,0c-6-.69-8.77-4.31-8.32-10.78.32-4.63.87-9.27,1.6-13.85,2.1-13.29-1-26.1-3.48-38.94-1.56-8.21-1.82-8.13-10.37-8.14-4.16,0-8.39.29-12.46-.35-3.81-.6-4.5,1.12-4.68,4.13-1,17.92-3,35.8-2,53.8.52,9.12-1.12,11.43-10.17,12.41a157.1,157.1,0,0,1-38.76-.18c-6.81-.94-8.32-3.77-6.68-10.42,2.85-11.53,13-19.52,25.56-19.5,5,0,7.1-.38,7.42-6.56.6-11.38,1-22.92,3.7-34.1.6-2.44-.72-2.27-2.24-2.58a146,146,0,0,1-18.71-4.63c-13.38-4.61-23.77-12.12-27.4-26.7-.28-1.12-.5-2.26-2.46-2.45-13.55-1.29-24.41-10.92-25.36-23-.31-4-3.88-4.92-7.52-6.24-.43,5.39-.87,10.57-1.24,15.76-.11,1.49.11,3-.09,4.48-.42,3.17-.9,6.87-5,6.83-4.57,0-4.14-3.89-3.93-7,.41-6.3.78-12.61,1.51-18.87.27-2.23,0-2.81-2.32-3-7.84-.59-10.68-5.25-7.82-12.51.23-.6,1.2-1.46,1.13-1.54-3.78-4-1.1-8.22-1-12.58.25-8.28,2.41-12.1,10.62-12.17,3.55,0,4.63-.8,5-4.57,3-28.36,6.4-56.68,9.62-85,.5-4.45.79-8.92,1.15-13.38.19-2.27.67-4.46,3.24-5,2.28-.45,4,1,4.69,2.95,1.06,2.8,2.39,2.67,5.16,2.19,12.38-2.17,24.82-1.22,37.23.22,6.26.72,12.53,1.5,18.82,1.84,6.66.35,12.91-.84,17.07-8.19,1.87,8.3-.22,15.24-2.63,21.91-9,24.84-29.65,39.68-56.08,41.07-7.14.38-14.26,1-21.42.81-2.3-.07-3.07.52-3.32,2.89-1.45,13.36-3.72,26.63-3.91,40.1,0,1.35-.63,2.86,1.9,3.1,7.85.78,11.16,6.61,13,13.18,1.09,3.93,1.39,8,3.58,11.67a5.61,5.61,0,0,1,.58,4.32C122.6,208,130,211,134.58,215.8Z"/><path class="cls-2" d="M244.88,135c12.64,12.94,18.14,13.46,29,2.59,12.63,25.78,22.61,52.29,27.87,81.1-5.65-2.54-10.55-4.81-15.51-6.92-1.23-.53-3-1.76-3.83.36s1.1,2.31,2.58,2.73c10.09,2.83,18.11,8.85,25.09,16.44,5.89,6.4,6.76,13.34,3,21.12-1.51,3.17-4.16,2-6.44,2.41s-2.65-.88-3.4-2.55c-3.7-8.23-10.09-13.41-18.76-15.79-2-.54-4.27-1.08-4.68,1.81-.46,3.29,2.41,1.71,3.83,2.14,2.15.64,5.69.13,5.86,2.56.14,1.92-2,4.56-4.62,5.35-8.34,2.54-13.87,7.48-15.19,16.52-.26,1.75-2.22,2.26-3.76,2.94-5.91,2.63-12.27,2.73-18.52,3.44a205.24,205.24,0,0,1-84.75-7.56c-20.18-6.25-29.61-25.13-24.72-45.87,5.06-21.45,16.5-39.71,28.19-57.88a274.07,274.07,0,0,1,16.32-22.65c1.51-1.89,2.44-2.91,5.08-1.13,5.53,3.75,11.65,4.61,17.95,1.63,1.44-.69,2.49-1,3.72.7,10,13.53,21.22,11.53,31.21.76C241.76,137.82,243.29,136.53,244.88,135Z"/><path class="cls-2" d="M191.45,69.07c-1.85,12.45-6.61,23-14.79,31.81-11,12-25.24,17.36-41.08,18.8-6.44.58-13,.18-19.43.54-3.48.19-4.22-1.27-3.87-4.33,1.3-11.53,2.5-23.07,3.73-34.61.11-1,.2-2,.24-3,.39-8.93.39-8.91,9.12-9.38A232.76,232.76,0,0,1,174,71.57C179.72,72.48,185.18,71,191.45,69.07Z"/><path class="cls-3" d="M235.66,91.5c4.82.18,9.59,3.52,13.72,7.63,9.14,9.1,15.18,20.37,21.14,31.65,1.74,3.29-.63,5.37-2.44,7.39-2.26,2.51-4.81,4.54-8.7,3.21-5.08-1.73-8.93-5.09-12.11-9.15-2-2.61-3.22-2.39-5.16,0a78.23,78.23,0,0,1-6.92,7.19c-7.88,7.49-16,6.92-22.32-1.92-2.51-3.53-4.54-5.71-8.94-2.76-2,1.37-4.74,1.36-7.27,1-8.35-1.08-9.47-3.49-4.46-10C200,115.62,208.29,105.86,218.52,98,223.18,94.35,228.15,91.55,235.66,91.5Z"/><path class="cls-3" d="M262,344.67c-5.66,0-11.31.14-17,0-5.33-.17-7.1-2-6.94-7.36.44-14.31.24-12.9,13.31-17.24,3.54-1.17,7.43-1.33,11.28-1.45,14-.46,20.51,9.89,23.19,19.15.94,3.27,0,5.79-4,6.4C275.29,345.15,268.64,344.63,262,344.67Z"/><path class="cls-3" d="M174.15,343.66a109.93,109.93,0,0,1-19.36-1c-3.73-.59-5-2.44-4.17-6.22,2.35-10.09,10.87-17,23-17.59a44.11,44.11,0,0,1,22.52,4.73c3.58,1.85,5.24,7.84,3.92,14.27-.78,3.8-3.74,4.36-7.08,4.91C186.73,343.84,180.44,343.59,174.15,343.66Z"/><path class="cls-4" d="M293.36,259.87c-1.4-4.64-5.21-6.78-4-10.93,2.59.37,2.58,3.82,5.24,4.14-.13-2.92-3.47-4.91-2.19-8.56a14.52,14.52,0,0,1,7.89,9.41c1.19,4.22,3.57,5,7.36,4.25,1.34-.28,3.05-1.15,3.94.78.8,1.72-.17,3.25-1,4.65-.94,1.64-2.43,1.24-3.95.77a19.84,19.84,0,0,0-5.21-1.13c-.85,0-2.62.25-2.34,1.92.32,1.95,1.85.69,2.82.77,5.2.46,6.56,2.31,4.8,6.72-.18.46-.46,1.26-.7,1.26-4,0-4.22,6.24-8.77,5.36-.23,0-.6.64-1.18,1.28,1.46.06,2.55.13,3.65.16s2,0,3,0c-2.7,5.36-10.58,6.9-14.38,2.7-2.52-2.77-.06-5.51.44-8.3.19-1,2.3-2.38.2-3.28-1.87-.8-2.55.8-3,2.33-.24.78-.72,1.5-.9,2.29-.27,1.18.42,3.13-1.52,3.06a3.8,3.8,0,0,1-3.4-3.19c-.51-2.35.24-4.6.83-6.85.22-.84,1.21-2.05-.1-2.6-1.7-.73-1.6,1.14-2.2,2-1.18,1.62-.23,3.61-.92,5.32-6-4.12-4.9-15.53,1.9-19.2,1.3-.69,2.8-1,4.12-1.66,2.07-1,3.53-1.35,4.44,1.54C288.78,256.64,290.34,258.05,293.36,259.87Z"/><path class="cls-2" d="M239.87,321c1-13.08-1.33-25.25-3.84-37.41-.1-.48-.37-1.18-.15-1.45,2.69-3.24,6.9-2,10.27-3.33,1.75-.7,3.36-.41,4.15,2.09,3.21,10.1,6.13,20.28,8.62,30.58.41,1.7.88,3.89-2,4C251,315.8,245.77,318.35,239.87,321Z"/><path class="cls-2" d="M199.11,320.87c-4.65-1.78-9.08-3.66-13.88-4.1-2.27-.2-2.13-1.69-2-3.21,1-10.27,2-20.53,2.88-30.8.16-1.77.92-2.32,2.58-2,1.46.3,2.94.57,4.41.8,2.91.45,6.87-1.31,8.5.93,1.25,1.74-.19,5.41-.39,8.22C200.51,300.68,199.82,310.62,199.11,320.87Z"/><path class="cls-4" d="M116.52,198.4c3-.66,3.25-2.73,4.33-4.08,2.9,3.23,2.83,9.69-.54,13.73-2.51,3-5.7,5-9.86,2.78.29-2.28,2.78-1.84,3.6-3.63-3.46-1.67-7.29,2.6-10.71-.73,2.72-2.84,4-6,1.81-9.74-.3-.5-1.11-1.16-.36-1.71,4.21-3.11,2.55-8.71,5.35-12.41.51-.68,1.74-1.51.54-2.48s-2,.08-2.83.93c-1.9,1.85-3.67,4.83-6.92,2.49-2-1.42-2.22-3.52-.7-5.67,2.46-3.46,5.45-5.94,10-4.55,6.34,1.93,10.66,11.56,8.46,18.54C118.05,193.86,117.37,195.84,116.52,198.4Z"/><path class="cls-2" d="M133.34,226.51c0,9.38-.71,9.85-8.77,6.28a22.08,22.08,0,0,1-13-15.79c-.41-1.72-.68-3,1.9-2.4a7.93,7.93,0,0,0,7.34-2.22c2.4-2.32,3.84-1.33,5.64.54C130.32,217,135.91,220.22,133.34,226.51Z"/><path class="cls-5" d="M113,64.4c1.11,7.57-.46,13.89-1.05,20.22-1.43,15.21-3.09,30.4-4.68,45.6-1.31,12.54-2.68,25.07-4,37.61-.12,1.23-.18,2.75-1.48,2.77-1.88,0-1.65-1.8-1.52-3,.76-7.43,1.59-14.85,2.44-22.26,1.82-16,3.72-32,5.5-48,1.14-10.23,2.13-20.47,3.23-30.7C111.52,66.24,112,65.89,113,64.4Z"/><path class="cls-6" d="M96.47,193.87c-2.6-.57-6.32-1.22-9.93-2.23a4,4,0,0,1-3.09-5.33c.71-2.79,2.86-2.71,5.1-2.49,4.9.48,9.42,2.34,13.91,4.13,2.79,1.12,2.59,3,.35,4.85C101.22,194.1,99.38,193.72,96.47,193.87Z"/><path class="cls-7" d="M95.36,204.79c-8.54,0-11-1.46-11.15-5.65-.12-2.53.65-3.75,3.33-3.36,3.91.57,7.86.95,11.75,1.66,1.37.25,3.67-.15,3.39,2.52-.2,1.91-.91,3.66-2.92,4.17A29.56,29.56,0,0,1,95.36,204.79Z"/><path class="cls-8" d="M91.56,180.85c-2.64-.49-6.91.67-6.69-3.65.25-4.75,4.83-4.85,8.35-5,2.22-.07,5.52,0,5,3.78C97.7,179.6,95.46,181.49,91.56,180.85Z"/><path class="cls-9" d="M96.26,207.8c.51,8.59.3,17.13-2.16,25.51C93.23,224.71,94.5,216.24,96.26,207.8Z"/><path class="cls-1" d="M243.09,218.33c-1.7,27-24.52,37.61-43.68,29.37-9.7-4.18-16.54-18.44-14.37-28.78,1.16-5.51,4-7.31,9.33-5.56,3.61,1.17,7,3,10.63,4.14,7.52,2.26,14.75,1,21.65-2.56,2.06-1.05,4.1-2.17,6.2-3.14C239.41,208.78,243.15,211.18,243.09,218.33Z"/><path class="cls-10" d="M212.54,230.78c-6-.85-12.16-.86-17.53-4.34a11.31,11.31,0,0,1-4.19-4.11c-.83-1.56-1.34-3.31-.42-4.68,1.08-1.6,3-1,4.54-.41,3.1,1.12,6.1,2.49,9.24,3.45,9.67,2.95,18.51.08,27.08-4.2,2.79-1.39,6-3.93,8.3-.4,2.45,3.84-1.07,6.42-3.88,8.37C228.77,229.26,220.69,230.06,212.54,230.78Z"/><path class="cls-11" d="M198,242.48c9.41-5.44,19.82-4.46,29.7-6.08a2.29,2.29,0,0,1,2.64.95c.75,1.41-.52,2.07-1.21,2.93C222.35,248.55,204.62,248.52,198,242.48Z"/><ellipse class="cls-12" cx="192.71" cy="178.73" rx="23.76" ry="29"/><ellipse class="cls-1" cx="187.04" cy="181.18" rx="14.62" ry="13.02"/><path class="cls-13" d="M216.47,178.73c0-16-10.63-29-23.76-29s-23.76,13-23.76,29Z"/><ellipse class="cls-12" cx="235.01" cy="178.73" rx="23.76" ry="29"/><ellipse class="cls-1" cx="229.35" cy="181.18" rx="14.62" ry="13.02"/><path class="cls-13" d="M258.78,178.73c0-16-10.64-29-23.77-29s-23.76,13-23.76,29Z"/></svg>