<svg id="Layer_1" data-name="Layer 1" xmlns="http://www.w3.org/2000/svg" viewBox="0 0 398.84 399.14"><defs><style>.cls-1{fill:#064057;}.cls-2{fill:#7cba95;}.cls-3{fill:#fefefe;}.cls-4{fill:#fdfdfd;}.cls-5{fill:#fcfcfc;}.cls-6{fill:#fbfbfb;}.cls-7{fill:#ebecec;}.cls-8,.cls-9{fill:#fff;stroke:#064057;stroke-miterlimit:10;}.cls-8{stroke-width:3px;}.cls-9{stroke-width:2px;}</style></defs><path class="cls-1" d="M138.85,134c2.31,0,3.63-1.67,5.35-2.52,3-1.46,6.32-2.56,8.83,0,2.82,2.89,3.77.73,5.1-1.08,7.77-10.54,14.85-21.61,23.49-31.51,5.91-6.78,12.13-13.23,19.44-18.55,12.23-8.92,23.84-9.11,36.72,3.92,14.19,14.36,24.78,31.5,33.13,49.84,9.41,20.66,19.34,41.17,24.65,63.44,2.95,12.4,4.41,24.78-.27,37.16a26.79,26.79,0,0,1-5.86,9.67,74.32,74.32,0,0,0-13.66,18.39,32.87,32.87,0,0,1-10.31,11.35c-6.85,4.91-13.14,4.18-18.08-3.3-.88-1.33-1.27-3.59-3.32-3-2.33.68-.74,2.84-.76,4.26-.09,9.17,1.72,18.14,3.09,27.16.33,2.19,1.17,3.5,3.94,4C259.23,305,267.84,317,267.1,326c-.33,4.13-3.05,6.31-6.72,6.91a131.88,131.88,0,0,1-36.74,1c-4-.47-6.38-3-6.41-7.47,0-3.87.23-7.69,1.76-11.22,3.94-9.11,3.75-18.7,3.54-28.3-.14-6-.43-12-.72-17.94-.06-1.25.19-2.77-1.84-2.91-7.55-.54-15.1-1.12-22.68-1.69a208.66,208.66,0,0,1,4,39.68c0,4,1.08,7.83,1.77,11.72,1.79,10.13-2.47,15.33-12.7,16.3A215.32,215.32,0,0,1,155,332c-9.81-.7-13.39-6.2-9.25-15.12,5.21-11.22,15.07-15.27,26.67-15.82,7.52-.35,7.67-.15,7.34-7.53-.41-9.29.12-18.59-1.15-27.89-.5-3.59-2.12-4-4.87-4.62-13.41-2.85-26.62-6.37-38.21-14.15-11.14-7.49-16.54-18.22-17-31.46-.13-3.6-.82-6.42-3.44-9.32-5.23-5.8-6-13.51-6.49-20.91s-.65-15,.73-22.4c.32-1.68.87-3.64-.67-5.2-6.43-6.5-5.42-15.32-7.09-23.27a70.92,70.92,0,0,1-.94-10.93c-.47-9.19,4.69-16.41,13.52-18.87a12.14,12.14,0,0,0,4.44-2,5.54,5.54,0,0,1,3.17-1.23c5.13.06,9.34,3.32,14.14,4.7,6,1.74,4.51,8.46,4,13.88C139.34,124.49,137.44,129.13,138.85,134Z"/><path class="cls-2" d="M258,117.19c8.85,16.84,17.49,33.61,24.2,51.26,5.47,14.4,10.85,28.87,12.57,44.39,1.17,10.51-2,22.81-8.36,29.42,1.25-9.17,2.22-18-1.07-26.63-.44-1.17-.26-3.28-1.85-3-1.9.31-1.44,2.49-1.13,3.82a62.51,62.51,0,0,1,1,22.28c-.95,7.22-3,9.28-9.36,8.34-5.61-.83-9.87-6.72-9.07-11.81.88-5.57,1.22-11.23,1.77-16.85.1-1,.16-2.2-1.18-2.32s-1.56,1.14-1.72,2.07a90.18,90.18,0,0,0-1.3,9.37c-.15,2.24-1,2.75-3.09,2.52-5.81-.61-10.28,1.81-13.77,6.38a17,17,0,0,1-3.53,3.51c-5.88,4.19-7.51,9.93-6,16.66.68,3-1,3.39-3.14,3.75a93.63,93.63,0,0,1-25.79.82c-17.8-1.88-35.69-3.15-52.84-8.94-7-2.36-13.56-5.44-19.22-10.2-12.7-10.69-15.76-24.66-12.36-40.14,4.69-21.38,13.56-40.76,28.49-57.24,6.09-6.72,11-14.53,16.31-21.91,1.51-2.08,2.42-3.54,5.14-1,4.78,4.39,10.4,5,16,1.49,2.41-1.48,3.81-1,5.26,1.18,8,11.92,23,12,33.14.52,2.13-2.42,3.55-3.7,7-1,6.48,5,13.36,4.16,19.4-1.47C255,120.9,256.3,119.14,258,117.19Z"/><path class="cls-3" d="M231.11,115.9c-4.25,3.55-7.13,7.73-11.33,10.55-8.28,5.55-14.31,5-21-2.29-.56-.61-1.15-1.2-1.7-1.83-4.91-5.58-4.91-5.58-11.29-1.87-3.94,2.29-10,.72-12.73-3-1-1.43-.24-2,.45-2.93,8.51-11.32,17.64-22.05,29-30.73,11.08-8.49,21-8.27,31.14,1.23,8.52,8,14.91,17.74,21.4,27.37a2.64,2.64,0,0,1,.32,3.13c-4.72,8.84-14.44,10.44-21.65,3.46A32.75,32.75,0,0,1,231.11,115.9Z"/><path class="cls-4" d="M104.4,126.71c.06-5.62-.52-11.43,4.95-15.33,1.11-.8,2.33-1.74,3.59-1s1.4,2.25,1.27,3.57c-.45,4.79-1.33,9.57-.42,14.41a1.28,1.28,0,0,1-.74,1.62c-.94.36-3-.25-2.37,1.54s2.67.78,3.9.59c4.7-.72,9.32-2.55,14.14-.87,2.14.75,4.55,1.37,5.35,3.94,1.3,4.19,4.3,3.31,7.21,2.43a15.18,15.18,0,0,0,3-1.7c1.93-1.15,4-3.52,6.14-1.42s.62,4.91-.68,7.27c-1.52,2.75-4.06,4.33-6.66,5.81a59.78,59.78,0,0,0-13.85,10.37c-3.65,3.81-8.18,4.33-12.72,1.59-5.29-3.18-9.07-7.64-10.13-14A113.9,113.9,0,0,1,104.4,126.71Z"/><path class="cls-3" d="M169.51,329c-4.54-.3-11,.69-17.46-.87-3.91-.95-5.25-2.85-4.23-6.77,2.65-10.23,11.19-16.22,24.68-16.79a60.93,60.93,0,0,1,22.88,3.81c2.54.89,3.53,2.71,3.89,5.18,1.72,11.78-.79,14.88-12.87,15.41C181.42,329.13,176.42,329,169.51,329Z"/><path class="cls-3" d="M238.8,331c-4,0-8,.11-12,0-5-.16-6.8-2.27-6.42-7.23.85-11.06,2.72-13.26,13.71-15.8a83.13,83.13,0,0,1,9.25-1.71c10.36-1.16,20.73,8.79,20.13,19.15-.2,3.46-2.55,4.14-5.36,4.65C251.74,331.19,245.27,331,238.8,331Z"/><path class="cls-4" d="M256.45,273.89c1.11-2.23,3.93-2.73,3.71-5.56-2,.05-3.31,1.34-4.81,2.14-2.24,1.19-3.86.2-5.3-1.32-2-2.16.57-2.72,1.48-3.78,1.06-1.23,2.69-2.19,1.18-4.38-2.39,1.14-4.18,3.51-7.4,3.16-2.78-.3-4.3-1.5-5-4-.74-2.65,1.22-3.24,3.13-4.12,5-2.32,6.25-4.22,5.45-9-1.62,3.18-3.33,5.49-6.47,6-2.43.42-3.45-.5-3.22-2.94.4-4.4,11.95-15.65,16.45-16.12,2.8-.29,4.31.14,3.62,3.61-.84,4.27-.69,8.51,1.88,12.42a11.82,11.82,0,0,0,9.88,5.74c-1.44-2.84-4.32-3.8-6.3-5.74s-2.63-4.78-3.22-7.72c4.27,5.31,9.33,8.74,16.39,8.27,1.53-.1,1.5,1.5.72,2-6.05,4.19-5.89,12.86-12.35,16.83C263.24,271.39,260.9,274.53,256.45,273.89Z"/><path class="cls-2" d="M225.16,307.07a144.24,144.24,0,0,0,.28-33.06c0-.33-.17-.79,0-1,3.41-3.9,8.3-2.36,12.51-3.29,2.86-.64,1.93,2,2,3.24a201.73,201.73,0,0,0,3.28,26.16c.54,2.64.41,4-3.05,4.26A51.55,51.55,0,0,0,225.16,307.07Z"/><path class="cls-2" d="M182.31,285.66c0-4.33.1-8.65-.05-13-.07-2.26.56-3.12,2.82-2.34.62.21,1.31.23,1.94.43,2.76.86,6.54-1.52,8.26,1.33,1.44,2.38,1.39,5.76,1.64,8.72.6,7.12,1,14.27,1.47,21.4.17,2.38-.35,3.36-3,2.54-4.08-1.25-9.7-.94-12-3.6-2.07-2.39-.55-7.89-.61-12,0-1.16,0-2.33,0-3.49Z"/><path class="cls-2" d="M112.36,160.82c4.19,3,8,3.79,12.07,3.25,1.35-.17,2.44,0,2.31,1.63-.33,4.09,1.17,8.24-.51,12.29a124.14,124.14,0,0,0-6.76,22.8,2.91,2.91,0,0,1-2.14,2.83C110.43,190.24,111.27,176.05,112.36,160.82Z"/><path class="cls-5" d="M137.42,115.69c-.37,2.83-.61,5.8-1.16,8.71-1.17,6.17-2.24,6.6-7.92,3.85-1-.5-1.51-.75-1.35-2A111.26,111.26,0,0,1,128.93,113c.59-2.39,1.35-4.71,4.13-4.74s3.37,2.74,4.17,4.84A9.2,9.2,0,0,1,137.42,115.69Z"/><path class="cls-6" d="M117.14,118.89c0-2.47.51-5.08-.13-7.37-.76-2.67.2-4.12,2.1-5.38,1.68-1.12,3.88-2.16,5.45-.71a5.84,5.84,0,0,1,1.38,5.88c-1.23,4.75-2.2,9.57-3.11,14.4-.39,2.12-1.55,2.43-3.43,2.52-2.49.11-2.08-1.53-2.12-2.91-.07-2.14,0-4.28,0-6.43Z"/><path class="cls-7" d="M131,167.43c-1.16-6.13.25-8.31,8.54-13.7Z"/><path class="cls-1" d="M204.4,221.83c-8.09-.12-14.52-1.75-19.27-7.48-1.06-1.28-2.42-2.76-.4-4.18s2.42.74,3.21,1.84c3.09,4.31,7.67,5.87,12.56,6,8.31.21,16.7.16,22.91-6.89.7-.8,1.63-1.29,2.5-.22a2.38,2.38,0,0,1-.11,3.2,16.61,16.61,0,0,1-7.36,4.9A45.19,45.19,0,0,1,204.4,221.83Z"/><ellipse class="cls-8" cx="183.83" cy="169.25" rx="23.76" ry="29"/><ellipse class="cls-1" cx="178.16" cy="171.7" rx="14.62" ry="13.02"/><path class="cls-9" d="M207.6,169.25c0-16-10.64-29-23.77-29s-23.76,13-23.76,29Z"/><ellipse class="cls-8" cx="226.13" cy="169.25" rx="23.76" ry="29"/><ellipse class="cls-1" cx="220.48" cy="171.7" rx="14.62" ry="13.02"/><path class="cls-9" d="M249.9,169.25c0-16-10.64-29-23.77-29s-23.76,13-23.76,29Z"/></svg>