<svg id="Layer_1" data-name="Layer 1" xmlns="http://www.w3.org/2000/svg" viewBox="0 0 398.84 399.14"><defs><style>.cls-1{fill:#064057;}.cls-2{fill:#7cba95;}.cls-3{fill:#fefefe;}.cls-4{fill:#fd9424;}.cls-5{fill:#faa127;}.cls-6{fill:#fbfbfb;}.cls-7{fill:#f9f9f9;}.cls-8{fill:#fafafa;}.cls-10,.cls-9{fill:#fff;stroke:#064057;stroke-miterlimit:10;}.cls-9{stroke-width:3px;}.cls-10{stroke-width:2px;}</style></defs><path class="cls-1" d="M116.44,195.71c3.43-9.39,5.88-17.54,9.3-25.33,13.53-30.86,29.69-60.16,50.74-86.59A45.25,45.25,0,0,1,179.77,80c11.48-11.43,19.53-12.92,33.88-2,12.11,9.22,20.13,22,27.31,35.08,15,27.38,27.86,55.75,35.65,86a19.06,19.06,0,0,0,8.95,12.42c7.77,5.1,13.2,12.7,18.92,19.63a88.76,88.76,0,0,0,9.35,10c5.6,5,7.83,11.66,8.66,18.91a5.32,5.32,0,0,1-1.07,4.24c-3.89,4.05-7.4,9.12-12.19,11.47s-10.43,4.9-16.43,3.47c-.8-.19-2.1,0-2.36-.45-2.92-5-9.72-5.88-12-11.47-2.37-5.76-3.92-11.5-2-17.83,1.27-4.2,2.83-8.46,2.14-13.11-1.6.13-2.31,1.38-2.93,2.37-8.64,13.65-22.05,19.37-37.05,22.42-4.05.83-8.13,1.47-12.23,2-2.43.31-3.39,1.55-3.67,3.88-.89,7.59,5.26,13,12.5,10.7a29.68,29.68,0,0,0,6.5-3.46c11.56-7.28,25.71-1.66,28.94,11.54,2.55,10.46,3.23,20.9.05,31.4-2.71,8.95-5,10.66-14.21,9.92-13.18-1.07-21.26-12.15-17.8-25.16-5,1.44-9.82,2.68-15,1.9-9.17-1.4-14.64-6.85-18.08-15-2.63-6.27-3.84-12.94-5.92-19.37-.95-2.95-10.4-5.91-12.54-3.89-1,.93-.37,2.21-.44,3.33-1.24,18.08,2,35.7,5.39,53.31a31.88,31.88,0,0,1,.6,5.41c.11,6.09-1.33,8.63-7.27,9.11-15.22,1.23-30.53,2.47-45.69-.61-6.83-1.39-8.41-4.18-7-11,2.27-11.47,13.59-20.88,25.69-20.83,3.71,0,4.64-.94,4.76-4.58.32-10,2.05-19.84,1.6-29.87-.18-3.92-1-5.77-5.69-5.81-6.74-.05-13.48-1.35-20.2-2.11-.13.59-.35,1-.24,1.16,5.34,8.37,5.09,9.78-2.66,16.17-6.55,5.39-13.56,8.73-22.36,6-2.56-.79-4.38-1.46-5-4.54-.78-3.67-2.43-7.16-3.65-10.75-1.1-3.22-1.94-6.43-6.48-6.42-1.8,0-3.5-1.88-4-3.49-1.47-5.15-4.15-9.75-6.08-14.67-.87-2.23-1-4.63-2.32-6.9-2.2-3.67-.63-8.11,3.62-10.49,2.27-1.28,2-2.22,1.1-4.05-3.76-7.68-7.85-15.22-10-23.58a4.12,4.12,0,0,0-1-1.63C75.47,194.07,75.13,191,79,186a40.64,40.64,0,0,1,13.16-11.26c8.51-4.54,18.57.15,21.49,9.94C114.54,187.84,115.25,191.06,116.44,195.71Z"/><path class="cls-2" d="M274.28,204.28c-5-1.24-9.13-2.23-13.28-3.33-1.72-.46-3.74-.85-4.09,1.27s2,1.71,3.31,1.9c13.89,2,24.63,9.4,33.64,19.63,2.12,2.41,5.28,5.11,2.05,9-2.49,3-8.7,4.42-12.33,2.43-4.07-2.23-8-4.76-12-7.1A43,43,0,0,0,259.23,223c-1.84-.41-3.73-.52-4.2,1.31-.59,2.28,1.74,1.72,3,2.06A61.08,61.08,0,0,1,271,231.51c3.08,1.63,3.44,3.21,1.41,6.15-7.76,11.3-19.15,16.61-31.87,19.65-21.7,5.19-43.78,5.47-65.92,4.6a321.92,321.92,0,0,1-34.24-3.13,8.32,8.32,0,0,1-6.54-4.61c-7.29-12.76-9.53-27.09-13.24-41-2-7.62-1.14-14.65,1.22-21.81,8.07-24.51,19.16-47.61,32.61-70,6.87,6.38,14.52,6,22.34,2.7,1.84-.79,2.45-.36,3.6,1,9.6,11.21,20.57,11.56,31.21.92,2.13-2.13,3.14-2.75,5.61-.08,6,6.49,14,5.66,20-2,2.8-3.59,3.84-3.81,5.95.56,11.47,23.75,22.78,47.54,29.8,73.09C273.53,199.52,273.78,201.64,274.28,204.28Z"/><path class="cls-3" d="M215.25,117.38c-2.66,2.65-5.14,5.31-7.82,7.74-8.29,7.52-17,6.92-24-1.84-2.4-3-3.86-4.77-8.28-2.26a15.48,15.48,0,0,1-15.65-.3c-2.06-1.18-2.7-2.34-1.26-4.67C165.8,104,173.4,91.92,183.35,81.6q13.31-13.81,27.86-1.07c10.84,9.5,18.93,21.18,26.35,33.39.48.8,1.19,1.54.89,2.72-.79,3.08-7.43,9.24-10.81,9.7-4.71.64-7.9-1.63-10.15-5.59C216.85,119.61,216,118.56,215.25,117.38Z"/><path class="cls-4" d="M112.74,194.43c3.16,13.17,6.08,26.27,9.47,39.24a102.78,102.78,0,0,0,13.88,31.66c3.93,5.84,3.69,6.39-1.6,11.15-5,4.45-10.32,7.86-17.46,6.58a6.19,6.19,0,0,1-5.32-4.46c-1.65-4.84-3.58-9.59-5.56-14.84,3.1-1.13,6.52-2.1,9.69-3.6,4.87-2.3,5.72-5.25,3-9.9-.69-1.18-.8-1.68,0-2.9,3.39-5.31,3-7.63-2-10.92-1.07-.71-1-1.4-1.26-2.34-1.51-6.49-3.1-7.77-9.4-7.77-11.3,0-11.28,0-15.65-10.49-1.79-4.28-3.73-8.5-5.48-12.79-.57-1.41-1.53-3,1.24-3.7,7.76-2,14.69-5.92,21.55-10,.89-.53,1.87-2.33,3.13-.12,1.11,2,0,2.78-1.42,3.44-6.31,2.9-12.34,6.41-19,8.62-1.4.47-3.68,1.06-3.17,2.42.86,2.28,2.78.45,4.11-.11C98.38,200.73,105.19,197.72,112.74,194.43Z"/><path class="cls-3" d="M164.15,334.2c-7.44-.14-14.91.72-22.32-.87-6.19-1.32-7.42-3.19-5.59-9.33,2.91-9.73,12-16.19,24-16.61A47.51,47.51,0,0,1,185,313.27a5,5,0,0,1,2.72,3.84c.45,2.42.94,4.84,1.45,7.26,1.47,7.08-.17,9.41-7.55,9.77C175.79,334.42,170,334.2,164.15,334.2Z"/><path class="cls-3" d="M269.57,301.69c.15,6.34-1.5,11.88-3,17.46-1,3.83-3.53,5.49-7.36,5.06a24.46,24.46,0,0,1-15-6.95c-3.42-3.41-4.72-7.36-2.77-12.19a57.11,57.11,0,0,0,4.12-23.75c-.19-5.09,2.64-7.58,7.92-6.83,6.18.87,10.92,4.18,12.87,10.22C268.25,290.34,269.73,296.13,269.57,301.69Z"/><path class="cls-3" d="M298.58,246.2a6,6,0,0,0,4.84-3.22c1.78-3.81,3.86-2.5,6.18-.76a22.79,22.79,0,0,1,9.26,16.87,6,6,0,0,1-2.8,6c-2.31,1.32-2.17-2.5-4.46-2.43,0,1.64,0,3.32,0,5a5.79,5.79,0,0,1-4.4,5.88c-2.14.65-4,1.1-3.69-2.27.11-1,.07-2.28-1.21-2.27-1.11,0-1.47,1.26-1.55,2.23-.29,3.67-2.11,5.38-5.86,5.05s-6-2-4.85-6.11a6,6,0,0,0-.73-5.64c-1-1.29-2.31-3.24-4-2.11-2.32,1.57.76,2.17,1.24,3.23.74,1.63.62,3.18-.6,4-1.43,1-2.43-.74-3.06-1.7a20.07,20.07,0,0,1-3.15-15.2c1.33-6.85,1.32-14.79,12.09-14.25,3.65.19,7-2.61,8.56-6.62C304.09,236.31,304.09,236.31,298.58,246.2Z"/><path class="cls-2" d="M242.5,278.7a54.27,54.27,0,0,1-1,14.19c-.68,3.47-2.6,6.31-6.27,6.94-12,2.09-20.49.31-25.82-10.3a66.76,66.76,0,0,1-4.58-13.62,3.51,3.51,0,0,1,.08-2.38c1.22-2.24,13.86-2.34,15.21-.21,6,9.45,10.43,10.74,20.4,5.95A19.28,19.28,0,0,1,242.5,278.7Z"/><path class="cls-2" d="M186.75,310.73c-5.77-3.16-10.9-5.27-16.65-5.66-2.5-.17-4-1.09-3.84-4.34.52-9.1,2-18.15,1.42-27.29-.11-1.7.37-2.49,2.17-2.32a28.86,28.86,0,0,0,3.48,0c9.38-.26,9.26-.26,9.61,8.89C183.33,290.06,184.11,300.08,186.75,310.73Z"/><path class="cls-5" d="M99.28,176.35c2.45,0,4.44,1.28,6.3,2.63,4.17,3,4.13,4.87-.1,7.82a63.47,63.47,0,0,1-19.18,9.1c-2,.57-3.73.45-4.92-1.15a4.91,4.91,0,0,1-1-5.06C82.34,184.65,93.88,176.34,99.28,176.35Z"/><path class="cls-6" d="M98.55,250.31a6,6,0,0,1-6.4-2.91c-1.77-2.82-.49-5.76,2.84-5.85,6-.17,11.87-.14,17.63-2.08a3.81,3.81,0,0,1,5,2.24c.83,2.16-1,3.38-2.63,4.19C109.94,248.46,104.76,250.49,98.55,250.31Z"/><path class="cls-7" d="M96.59,239.35c-4,.06-7.33.08-7.71-4s2.79-4.72,5.82-5.35c4.42-.93,8.9-.45,13.35-.4a4.49,4.49,0,0,1,4.56,3.85c.37,2.91-2.26,3.35-4.3,3.78C104.12,238.12,99.88,238.77,96.59,239.35Z"/><path class="cls-8" d="M102.23,260.37a5.66,5.66,0,0,1-5-1.69c-1.1-1.14-2-2.51-1.56-4s2-.71,3.08-.84a70.53,70.53,0,0,0,13.59-2.72c1.69-.55,3.41-1,4.21,1.08a3.56,3.56,0,0,1-2,5A41.8,41.8,0,0,1,102.23,260.37Z"/><path class="cls-1" d="M96,189.79l1.69-4.29c-3.2.11-6,0-6.1,4.15,0,1.42-1.23,1.9-2.55,1.61-1.59-.36-1.36-1.7-1.23-2.82.52-4.69,8.75-8.56,12.66-6.05.77.5,1.49,1,1.18,1.89C100.82,186.64,99.71,188.79,96,189.79Z"/><ellipse class="cls-9" cx="164.34" cy="162.74" rx="23.76" ry="29"/><ellipse class="cls-1" cx="158.67" cy="165.19" rx="14.62" ry="13.02"/><path class="cls-10" d="M188.1,162.74c0-16-10.64-29-23.76-29s-23.76,13-23.76,29Z"/><ellipse class="cls-9" cx="206.64" cy="162.74" rx="23.76" ry="29"/><ellipse class="cls-1" cx="200.98" cy="165.19" rx="14.62" ry="13.02"/><path class="cls-10" d="M230.4,162.74c0-16-10.64-29-23.76-29s-23.76,13-23.76,29Z"/><path class="cls-1" d="M179.71,218c-5.44-.33-11.09-.73-15.7-4.55-1.11-.92-3.32-1.82-1.79-3.86,1.75-2.35,2.7.11,3.83,1,7.78,5.86,16.28,4.07,24.71,2.22a21.07,21.07,0,0,0,9.6-4.95c.91-.81,2.12-2.3,3.36-1,1.47,1.51-.14,2.86-1.17,3.71C196,215.85,188.14,217.5,179.71,218Z"/></svg>