<svg id="Layer_1" data-name="Layer 1" xmlns="http://www.w3.org/2000/svg" xmlns:xlink="http://www.w3.org/1999/xlink" viewBox="0 0 398.84 399.14"><defs><style>.cls-1{fill:none;}.cls-2{fill:#064057;}.cls-3{fill:#7cba95;}.cls-4{fill:#fd9424;}.cls-5{fill:#fefefe;}.cls-6{fill:#fd9324;}.cls-7{fill:#fdfdfd;}.cls-8{fill:#f9faf9;}.cls-9{fill:#f9f9f9;}.cls-10{fill:#f7f7f6;}.cls-11{clip-path:url(#clip-path);}.cls-12,.cls-13{fill:#fff;stroke:#064057;stroke-miterlimit:10;}.cls-12{stroke-width:3px;}.cls-13{stroke-width:2px;}</style><clipPath id="clip-path"><path class="cls-1" d="M170.08,178.4l-7.14-21.2,13.27-29.51,38.88,6.2L252.47,130l10.47,16.47v30.67c-16.38.21-32.67,1.89-49.06,2.1-8.08.11-16.59-.28-24.69.27a58.48,58.48,0,0,1-9.2-.16C176.69,179.1,174.07,178.8,170.08,178.4Z"/></clipPath></defs><path class="cls-2" d="M174.85,335.42c-7.29-.06-13.78.17-20.25-.62-7-.85-9.47-4.35-7.81-11.29,3.08-12.85,15.25-22.38,29.1-22.78,7.88-.23,7.68-.23,8-7.94.17-4.58-1-5.9-6-7.61-17.84-6.19-35.17-13.84-52.66-21-4.72-1.93-9.25-4.31-14-6.13-4.4-1.68-5.94-4.76-6-9.21-.22-11-.66-22-.91-33-.06-2.7-.69-4.37-3.45-5.76-3.58-1.8-4.45-4.94-4.17-9.48.27-4.31,1.4-9.11-.9-13.56-1.89-3.65.41-8.62,4.9-9.8,2.74-.73,2.81-1.91,2.75-4.06-.2-6.66-.21-13.32-.37-20-.2-7.77-.24-7.76,7-4.27,9.78,4.7,19.68,9.19,29.32,14.17,3.9,2,5.52,1,7.52-2.51C162.34,133.4,180.23,108,202,85.41A59.78,59.78,0,0,1,212.44,77c12.64-8.25,23.27-7.43,34.68,2.51,10.4,9.05,16.53,21.09,22.48,33a422.72,422.72,0,0,1,30.74,80.66c3.1,11.75,5,24,1.58,35.91-3.9,13.86-13.57,22.69-27.15,27.32a5.19,5.19,0,0,1-6.51-2.14c-1.14-1.7-1.78-2.66-4.23-1.85-2.69.89-2,2.66-2,4.29.19,7.31,1.21,14.58,1.05,21.93-.09,3.68-.81,6.14-5,6.35-2.34.12-3.38,1.46-3.08,4,.25,2.13,0,4.32.07,6.48.27,7.51.76,8.12,7.81,10.29,8.51,2.62,16.13,13.06,16.17,21.84,0,4.59-2.17,7.39-6.47,8.05a157.54,157.54,0,0,1-40.29,1c-5-.53-7.33-3.72-7.29-9a35.54,35.54,0,0,1,3.88-16.23c3.86-7.5,2.26-15.53,2.25-23.4,0-1.59-1.11-1.81-2.37-1.82-6.83-.07-13.65-.08-20.47-.27-2.26-.07-2.29,1-2.25,2.76.25,9.44-.14,18.85,1.79,28.26,2.27,11.05-1.66,15.7-12.92,16.87-3.46.36-6.92.77-10.4,1S177.54,335.26,174.85,335.42Z"/><path class="cls-3" d="M241.54,116.87c7.33,9.88,16.66,8.37,25.7-1.85,3.8,8.51,7.77,16.68,11.12,25.1,7.95,20,16.24,40,20.18,61.29,1.6,8.66,2.81,17.5.43,26.23a32.48,32.48,0,0,1-13.26,18.87c-1.32-11.54-5.95-21.68-7-32.66-2.22.34-1.76,1.74-2,2.78-.23,1.19.44,2.85-1.55,3.17a3.54,3.54,0,0,1-4.08-1.91c-1.91-3.22-4.6-5.92-8.34-6.69-2.79-.57-2.82-2.11-2.83-4.26,0-8.48,0-17-.86-25.44-.16-1.62.21-4-2.08-3.78-5.73.54-3.64-2.69-3-5.42a26.7,26.7,0,0,0-2.14-18.91c-3.31-6.58-8.11-11.52-16.12-11.38-8.17.13-14.77,3.28-18.9,10.78-4.7,8.53-5,17.33-1.72,26.62h-11c3.89-7.89,6.16-15.64,4-24.21s-7.09-14.17-14.31-15.27c-9.3-1.41-18,2.33-22.3,9.83a32.45,32.45,0,0,0-4.08,20.65c.21,1.63.47,3.26.85,5.87-6.91-3-13.19-5.67-19.41-8.45-2.74-1.22-.6-2.81,0-4a291.76,291.76,0,0,1,24.77-39.08c.59-.8,1.13-1.65,1.7-2.46,1.52-2.18,2.6-5.18,4.69-6.3s3.84,2.24,6.14,3a17.78,17.78,0,0,0,14.44-1c1.59-.84,2.67-1.47,3.9.76,7.56,13.75,22.3,15.27,33.88,1.44C239.5,119,240.53,118,241.54,116.87Z"/><path class="cls-4" d="M257.14,215.84c-4-.33-6.7-3-10.27-3.25-3.83-.28-6.31.49-6,5,0,.49.29,1.23.06,1.45-4.79,4.59-3.26,10.67-4.1,16.26-1,6.35.5,10.44,6,13.73a30.8,30.8,0,0,0,11.3,3.55c3.18.49,4.26,2,4.45,4.81.47,7,.84,13.93,1.4,20.89.2,2.41-1.21,2.62-3,2.91-6.12,1-12.28.42-18.42.67a20.05,20.05,0,0,1-3,0c-3.73-.41-8.56,2.53-10.86-.35-1.82-2.27-.6-7-.68-10.64-.23-10.81-.23-21.63-.77-32.43-.2-3.89,1-5.48,4.69-5.67,1.64-.09,3.25-.64,4.89-.85,1.26-.17,2.48-.37,2.11-2s-1.84-1.14-2.88-1c-2.83.53-6.65,2.47-8.25.65s-.59-5.68-.68-8.65c-.35-11.47.3-23-.9-34.42-.23-2.2-.16-3.69,2.88-3.83,9.12-.43,18.22-1.26,27.34-1.84,1.41-.08,3.54-1,3.54,1.91C256.06,193.76,256,204.71,257.14,215.84Z"/><path class="cls-5" d="M241.67,111.76c-3.72,3.24-6,7.42-9.77,10.28-8.83,6.71-17.54,5.63-23.18-3.77-2.74-4.56-5-5.42-9.72-2.75-4.35,2.48-9.28,2-13.8-.44-1.57-.84-2.63-1.64-1.06-3.77,7.82-10.61,16.07-20.87,26.45-29,15-11.85,28.09-9.68,40.73,6.84,4.9,6.39,8.72,13.63,13,20.49.33.53.83,1.38.63,1.73-2,3.51-4.6,6.35-8.61,7.78-3.22,1.14-6.15,1.43-8.75-1.17C245.61,115.93,243.69,113.86,241.67,111.76Z"/><path class="cls-4" d="M198.67,182.83c5.82,0,11.63.12,17.44-.06,2.44-.08,2.94.77,3.14,3.06,1.21,13.93.7,27.89.92,41.83,0,2.81-1.06,3.24-3.49,3.21a99.08,99.08,0,0,0-26.88,3.88,8.3,8.3,0,0,1-10.68-7.9c-.35-12.95-.64-25.91-1.28-38.85-.19-3.94.45-5.69,4.9-5.34,5.28.43,10.62.1,15.93.1Z"/><path class="cls-4" d="M180.25,236c8.72,3.64,17.4-.62,26.27-1.48.33,0,.64-.18,1-.24,11.85-2.23,12.18-1.78,12.85,9.83s.63,22.92.81,34.38c.06,3.2-.77,4.46-4.17,4.26a300.52,300.52,0,0,0-32.88-.29c-2.1.11-3.91,0-3.89-3.05C180.29,265,180.25,250.52,180.25,236Z"/><path class="cls-4" d="M142.43,217.54c10.88,5.61,21.24,11,31.64,16.3,1.59.81,2,1.94,2,3.58.32,13.28.65,26.56,1.12,39.84.11,3.13-.32,4.2-3.78,2.76-9.28-3.88-18.69-7.47-28.12-11-2.3-.85-2.93-2-2.92-4.34C142.48,249.27,142.43,233.82,142.43,217.54Z"/><path class="cls-6" d="M175.22,230.4c-10.93-5.46-21.25-10.6-31.55-15.77-1.62-.82-1.44-2.42-1.44-3.93,0-13.31.16-26.64-1-39.93-.18-2.18-.34-3.66,2.71-2.08a229.64,229.64,0,0,0,26.25,11.82c3.62,1.33,4.6,3.13,4.49,7.25-.31,12.81.27,25.63.5,38.45C175.23,227.32,175.22,228.44,175.22,230.4Z"/><path class="cls-4" d="M139.18,266.49c-9.57-3.93-18.55-7.68-27.6-11.28-2.56-1-3-3.18-3-5.25-.39-12.3-.57-24.62-.87-36.93-.05-2.29,1.44-2.27,3-2.2,3.25.15,6.33-.25,8.63-2.84.9-1,1.52-.63,2.5-.1,3,1.65,6,3.7,9.34,4.52,7.23,1.8,8.47,6.28,8.19,13.05C138.8,238.91,139.18,252.4,139.18,266.49Z"/><path class="cls-5" d="M171.27,331.73c-5.15,0-10.31.15-15.45,0-5.64-.2-7.09-2.22-5.84-7.52,2.92-12.39,17.39-21.88,31-20.29a90.8,90.8,0,0,1,18.28,4.28c4.11,1.38,6.37,7.16,5.77,14.36-.36,4.3-2.36,6.55-7,7.48C189.13,331.78,180.21,331.75,171.27,331.73Z"/><path class="cls-4" d="M106.72,151.15c10.11,4.84,20,9.62,30,14.36a2.26,2.26,0,0,1,1.49,2.29c-.26,14.58,1.78,29.13.73,44.4-5.85-2.55-11.9-4.23-16.78-7.59-4.41-3.06-2.6-8.71-1.78-13.22,1.54-8.48.89-10.36-7.19-12.74-4.69-1.38-7-3.48-6.58-8.77C107.1,163.85,106.72,157.75,106.72,151.15Z"/><path class="cls-5" d="M249.15,333.72c-4.66,0-9.32.16-14,0-5.71-.24-7.81-2.73-6.94-8.38.52-3.4,1.74-6.68,2.54-10a5.13,5.13,0,0,1,3.42-3.87c8.5-3.39,17.19-4.88,26.23-2.82,7.69,1.75,15.28,11,15.44,18.73.08,3.8-2.57,4.91-5.82,5.48C263.12,334,256.12,333.66,249.15,333.72Z"/><path class="cls-7" d="M275.73,239.33a12.66,12.66,0,0,0-1.94,1.86c-7.4,12.56-20,9.26-30.09,4a6.2,6.2,0,0,1-3-3.18c-.69-1.61-1.22-3.33-.21-4.71s2.35.28,3.54.5c4.35.8,8.55,3.14,13.56,1.31-1.23-1.89-2.84-2-4.4-2.36A29.13,29.13,0,0,1,241.9,232c-2.93-2.15-2.35-4.21-.69-6.78,2.12-3.3,3.09-.11,4.47.62,4.1,2.17,7.92,5.17,13.53,4.65-1.51-3.21-4.38-3.52-6.59-4.57-2.39-1.13-5-2-6.5-4.22-1-1.47-3.1-3.29-1.42-5.19,1.47-1.66,3.65-.87,5.5.11s3.49,1.89,5.3,2.71c1.33.6,2.75,1,4.11,1.46,1.24-2.28-.68-6.23,2.2-6.52s5.23,2.5,6.95,5.06c.87,1.29,4.93,4.35,6.14,4,2.49-.66,2.94.24,3.25,2.55.58,4.24,1.82,8.39,2.53,12.63.28,1.73,1.59,4.18-1.15,5.09C276.4,244.72,275.91,242.14,275.73,239.33Z"/><path class="cls-7" d="M198,179.3a22.22,22.22,0,0,0,4.84-10.84c.75-5-1.3-10.41-4.72-11.49a11.67,11.67,0,0,0-14,5.49c-2.46,4.86-2.49,7.8-.2,15.82-.21.17-.42.48-.65.5-10.84.95-11.86,0-12.21-11A31.79,31.79,0,0,1,173,154.68c3.29-8.14,10.27-12.52,19.14-11.79,6.94.56,11.1,5.06,13.17,13.92,1.82,7.79-.43,14.67-4.41,21.2C200.42,178.85,200,180.35,198,179.3Z"/><path class="cls-7" d="M224.91,178.53c-5.53,2.69-6.77-.33-7.89-4.66a26.54,26.54,0,0,1,1.41-17c2.87-7.19,11-12.47,18-11.82,6.68.63,13.2,7.19,14.45,15.12.78,4.91,1.08,9.92-1.13,14.69a4.24,4.24,0,0,1-3.62,2.88c-2.4.25-3.59.18-2.74-3,1.31-4.84,2.07-9.91-2.62-13.69a9.76,9.76,0,0,0-10.78-1.3c-5.23,2.44-5.66,7.74-6.68,12.52C222.83,174.47,223.93,176.49,224.91,178.53Z"/><path class="cls-3" d="M234.05,307.6c.31-6.35.6-12.14.88-17.93.07-1.53,0-2.95,2.29-3,4-.1,7.94-.37,11.89-.73,2.26-.21,2.83.7,2.84,2.83,0,4.47-.3,9,.92,13.37.63,2.25-.67,2.54-2.4,2.5C244.93,304.51,239.68,306,234.05,307.6Z"/><path class="cls-3" d="M203.25,305.57c-4.93-1.33-9.5-2.58-14.09-3.77-.78-.21-2-.12-2-1.05-.23-4.45-.28-8.91-.38-13.37,0-.13.09-.37.19-.4,4.49-1.34,9.11-.59,13.66-.64,2.83,0,1.66,2.78,1.79,4.31C202.85,295.57,203,300.51,203.25,305.57Z"/><path class="cls-8" d="M109.12,207.82a16.46,16.46,0,0,1-7.17-1.95c-1.46-.82-2.57-1.88-2-4s2-2.34,3.79-2.09c3.23.46,6.49.86,9.68,1.56,1.67.36,3.9.72,3.73,3.17s-2.2,3-4.24,3.28C112.12,207.91,111.28,207.82,109.12,207.82Z"/><path class="cls-9" d="M105,180.89c2.27.33,5.6.59,8.82,1.35,2.49.58,4.19,2.42,3.34,5.18-.93,3-3,1.27-4.83.85-2.89-.66-5.74-1.64-8.79-1.44-2.19.15-5,.18-4.81-2.71C98.85,181.49,101.31,180.51,105,180.89Z"/><path class="cls-10" d="M106.73,190.88a11.42,11.42,0,0,1,7.89,1.78c2.72,1.69,2.08,3.4-.39,4.13-4.36,1.29-8.77.2-13.07-.81a2,2,0,0,1-1.35-2.78c.38-1.07.88-2.25,2.3-2.31S105.09,190.88,106.73,190.88Z"/><path class="cls-3" d="M281.3,248.07a9.53,9.53,0,0,1-7,3.79c-1.52.15-3.32,0-3.12-2,.15-1.55,1-3,3.28-2.59C276.48,247.68,278.57,247.77,281.3,248.07Z"/><polygon class="cls-3" points="168.41 176.28 162.49 157.19 172.74 140.71 183.37 134.74 207.27 137.46 227.63 134.74 241.13 137.87 251.43 147.17 256.47 157.87 256.47 169.34 254.26 177.56 215.19 179.41 186.71 179.66 171.83 178.18 168.41 176.28"/><g class="cls-11"><ellipse class="cls-12" cx="193.07" cy="162.89" rx="23.76" ry="29"/><ellipse class="cls-2" cx="187.39" cy="165.34" rx="14.62" ry="13.02"/><path class="cls-13" d="M216.83,162.89c0-16-10.64-29-23.76-29s-23.77,13-23.77,29Z"/><ellipse class="cls-12" cx="235.37" cy="162.89" rx="23.76" ry="29"/><ellipse class="cls-2" cx="229.71" cy="165.34" rx="14.62" ry="13.02"/><path class="cls-13" d="M259.13,162.89c0-16-10.64-29-23.76-29s-23.77,13-23.77,29Z"/></g></svg>