<svg id="Layer_1" data-name="Layer 1" xmlns="http://www.w3.org/2000/svg" viewBox="0 0 398.84 399.14"><defs><style>.cls-1{fill:#064057;}.cls-2{fill:#7cba95;}.cls-3{fill:#fefefe;}.cls-4{fill:#fdfdfd;}.cls-5{fill:#fcfcfc;}.cls-6,.cls-7{fill:#fff;stroke:#064057;stroke-miterlimit:10;}.cls-6{stroke-width:3px;}.cls-7{stroke-width:2px;}</style></defs><path class="cls-1" d="M135.44,186.34C147.6,151.21,166.8,120.23,191,92.28c6.21-7.16,13.07-13.8,22.12-17.31,10.67-4.15,19.36.3,27.09,7.34,8.91,8.12,15.78,17.93,22.18,28,15.77,24.94,28.16,51.42,35.74,80a53.66,53.66,0,0,1,1.83,9.23c.72,8.73,2.7,16.52,8.11,24.29,6.13,8.81,3.95,19.79-.63,29.46-1.74,3.68-3.44,7.06-2.35,11.25.27,1.07.36,2.65-.23,3.4-4.4,5.59-2.62,12.66-4.76,18.82-3.13,9-9,11.25-18.16,12.18s-13.8-4.58-20-8.28c-4.14-2.5-6.11-11.34-3.31-15.29a14.1,14.1,0,0,0,2.39-7.18c.43-3.58,2.89-6.25,6.07-8.07,1.55-.88,2.84-1.91,1.86-3.88s-2.4-.78-3.78-.39c-5.54,1.59-11.07,3.31-16.91,3.45-2,.05-2.79.9-2.27,2.79,3.28,11.83,4.1,24.13,6.77,36.08.56,2.5,1.27,3.77,4.3,4.21,11.33,1.68,20.56,12.44,20.83,23.36.1,4.11-1.43,6.66-5.55,7.53a84.81,84.81,0,0,1-19.77,1.88c-7.63-.2-15.32.88-22.89-.69-7.92-1.65-10-4.54-8.63-12.65,1-5.67,2.88-11.17,3.87-16.84,1.86-10.73,1-21.55.44-32.33,0-.83-.33-1.64-.4-2.46-.82-8.94-.81-8.88-9.64-9a70.86,70.86,0,0,1-9.44-.67c-3.53-.52-5.6.06-5.44,4.32.43,12.13.8,24.27.9,36.41.06,7.51,2.73,14.67,2.55,22.17-.13,5.29-2.63,8.88-7.7,9.48-15.2,1.81-30.49,2.45-45.71.29-7.33-1-9.33-5-6.86-12.14,3.62-10.52,12-15.31,22.12-17.83a33.91,33.91,0,0,1,6.89-.85c6.53-.2,6.52-.14,6.62-6.93.17-11.48.06-23,1.46-34.39.32-2.67-1-2.64-2.75-2.83a83.86,83.86,0,0,1-22.95-5.8c-15-6.1-23.19-17.46-25-33.45a4.66,4.66,0,0,0-2.47-3.91c-12.72-7.5-18.36-19.87-22.72-33.1-.81-2.45-1.76-3.78-4.79-3.8a10.38,10.38,0,0,1-9.92-9.9,20,20,0,0,0-2.07-8c-1.29-2.74-1.85-5.7,0-8.54a3,3,0,0,0,.76-2.19c-1-10.11,3.26-15.86,13.12-17.77a25,25,0,0,1,4-.44c9.84-.35,10-.41,11-10.53a27.13,27.13,0,0,1,8.79-17.83,12.49,12.49,0,0,1,8.43-3.63c6.94,0,10.82,6.13,7.58,12.36s-4.46,13.07-7,19.47c-1.08,2.67,0,5.3.54,7.66,1.65,7.24-.08,13.78-2.82,20.28-1.26,3-2.82,5.89-1.57,9.38.44,1.22-.2,2.56-.7,3.83C127.88,178.57,129.26,182.21,135.44,186.34Z"/><path class="cls-2" d="M174.6,118.15c6.12,6.92,13.35,7.7,21.22,5.18,1.65-.53,2.59-.61,3.64,1,8.65,13.66,20.48,10.89,30.12,1.89a8.09,8.09,0,0,0,1-1.06c2.66-3.61,4.75-5.06,9.23-1.24,5.12,4.35,14.44,1.65,19.31-4.81,2.51-3.33,3.22-2.52,5,.48C278.69,144,290,169.73,296.23,197.5c.93,4.12,1.16,8.39,1.79,13.13-4.85-2.15-8.51-5.72-14.32-4.46,22,10.79,30.5,26.41,18.9,50.11-4.49-3.7-7.7-9.33-14.38-6-.48-2.3,1-3.45,1.51-4.91,2.45-7,.45-12.8-5.93-16.7-1.84-1.12-3.71-2.18-5.54-3.32-1-.59-1.91-.78-2.64.19-1,1.32-.09,2.11,1,2.76a70.75,70.75,0,0,1,6.78,4.17c6,4.7,5.12,11.74-2.07,14.38-15.44,5.68-31.08,10.5-47.83,10.56-21.62.09-43.25.8-64.54-4.07-14.9-3.4-27.49-9.87-33.54-25.11-4-10-2.1-20.08.32-29.93,6-24.24,16.69-46.42,30.27-67.28C168.7,126.88,171.51,122.77,174.6,118.15Z"/><path class="cls-3" d="M214.05,130.48c-5.5-.36-9.12-3.66-11.79-8-2.11-3.46-4-5.24-8.06-2.26-2.25,1.65-5.37,1.66-8.19,1.07-8.52-1.8-9.9-5.17-4.76-11.92,7.37-9.67,15-19.19,24.76-26.53,11.55-8.66,20.81-8,31.63,1.7,8.39,7.5,14.26,17,21,25.87.68.9,1.25,1.69.52,3.08-5.3,10.06-16.36,12.45-21.46,4.22-1.77-2.85-3-1.72-4.73.14-3.27,3.52-6.46,7.16-10.61,9.77C219.79,129.19,217.2,130.54,214.05,130.48Z"/><path class="cls-4" d="M127.87,169.84c-2.89,7.89-9,11.31-16.63,12.52-2,.31-3.71,0-3.76-2.68,3.63-.44,7.69.44,10.61-3-2.4-1.24-4.42,1.58-6.77.42,1.08-2.55,4.5-3.47,4.81-6.6.1-1.07.91-2.42-.7-2.94-1.38-.44-1.44,1.07-2,1.78-3.61,5.13-8.69,7-14.35,5.42a7.55,7.55,0,0,1-4.61-3.5c-.82-1.36-2.07-3.07-1.11-4.63,1.29-2.09,2.89.06,4.3.31a26.89,26.89,0,0,0,12.3-.41c5.42-1.56,7.4-5.74,4.88-10.75-1-2-1.23-2.88.8-4.58,2.25-1.89,3.61-4.95,1.5-8s-5.07-3.43-8.29-1.78c-1.55.79-3.49.94-4.9,3.17,2.35-.15,4.25-.18,6.13-.42,1.44-.19,3.09-1.11,3.84.86s-.1,3.61-1.67,4.83c-3.41,2.63-17.17,1.15-19.92-2.12a3.06,3.06,0,0,1-.39-3.16c1.73-5.74,5.88-9.23,11.83-9.59,2.49-.16,5.07-.68,7.46-.23,5.79,1.1,6.81-2.67,7.81-6.84,1.46-6.07,2-12.41,5.08-18,1.72-3.11,3.84-5.77,7.56-6.71A5.85,5.85,0,0,1,138,105c1.58,1.82,1.12,3.65.25,5.94-2.64,6.91-4.75,14-7,21.08a4.13,4.13,0,0,0,0,2.46c4.18,11.82-.17,22-6,31.94-.67,1.13-1.76,2.36-.94,3.59C125.34,171.72,126.26,168.63,127.87,169.84Z"/><path class="cls-3" d="M271.86,289.27c-8.42-.3-11.51-3.1-10.94-9.54.24-2.78.86-4.2,4.37-2.88,6,2.27,6.41,1.79,6.63-4.71-2.18,1.72-4.75,3.84-6.63,1.05-1.74-2.58-1.13-5.77,1.3-8.1,2.86-2.73,6-4.7,10.21-3,3.43,1.35,5.88-1.07,6.4-3.57.66-3.15-2.9-2.54-4.72-3.41-1.61,1.73,1.5,2.5.44,4-.48,0-1.11.2-1.41,0-1.6-1.26-5.22.33-5.17-2.59s3.16-4.91,5.56-4.83c7.4.25,15.37-.8,21,6.07a11.91,11.91,0,0,1,3,6.65c.39,4.94-.86,5.85-5.28,3.77-.7-.33-1.3-1.23-2.09-.26s.18,1.51.62,2.09c5.48,7.25,3.08,20-4.69,24.28-2.42,1.32-5.13,2.57-7-.87-.86-1.54-1.63-1.48-2.47-.08-1.8,3-4.65,2.34-7.06,1.57S268,292.91,271.86,289.27Z"/><path class="cls-3" d="M167.25,331.2c-3.42-.12-9.91.48-16.31-.9-4.66-1-5.85-2.83-4.43-7.35,2.66-8.52,12.63-15.68,22.64-16.72,9.71-1,18.77,1.45,27.49,5,5.3,2.19,3.74,7.87,4.15,12.2.33,3.35-1.81,5.33-5.27,6.07C187.18,331.34,178.74,331.36,167.25,331.2Z"/><path class="cls-4" d="M251.37,332.07c-7,.17-14,.43-20.89-.78-5.17-.89-7.2-3.44-6.39-8.59,0-.17,0-.33.08-.5,2.28-12,5.07-14.46,17.47-16,5.77-.7,11.48-1.74,17.27,0,7.88,2.36,14.91,10.54,16,18.63.4,3-.86,4.53-3.69,5.45-3.26,1.05-6.57.85-9.87,1.11S254.69,331.86,251.37,332.07Z"/><path class="cls-2" d="M228.68,306.47a294.53,294.53,0,0,0,.16-31.54c-.12-2.71.69-4,3.42-4.05a27.24,27.24,0,0,0,3.41-.64c9-1.5,9-1.5,10.25,7.23,1.06,7.2,1.85,14.44,3.76,21.49.53,2,.38,3.25-2.09,3.25C241.21,302.22,235.22,304.12,228.68,306.47Z"/><path class="cls-2" d="M198.67,308c-4.64-1.37-8.93-3.18-13.54-3.79-2-.26-2.52-1.26-2.46-3.37.27-9.45.4-18.9.27-28.35-.05-3.67,1.13-4.33,4.61-3.87,9.28,1.21,9.19,1,9.57,10.59S198.12,298,198.67,308Z"/><path class="cls-2" d="M124.59,180.38c1.15-.2,1.35.41,1.69,1a23.93,23.93,0,0,0,6.94,8.31c1.25.87.77,2,.52,3.14-1.15,5.33-2.39,10.64-3.32,16-.42,2.43-.88,3.28-3.27,1.67a36,36,0,0,1-15.36-22.33c-.19-.78-.83-1.9.13-2.18C116.48,184.62,121.17,183.62,124.59,180.38Z"/><path class="cls-5" d="M103.88,163.66c-5.19,0-9.59-.36-12.61-4.46-1-1.41-1.58-2.81-.68-4.56a3.8,3.8,0,0,1,4.55-2.15,58.93,58.93,0,0,0,14.16,1.82c1.74,0,2.92.73,2.77,2.66-.22,2.76-1.09,5.3-3.93,6.27A15.71,15.71,0,0,1,103.88,163.66Z"/><ellipse class="cls-6" cx="189.89" cy="166.35" rx="23.76" ry="29"/><ellipse class="cls-1" cx="184.22" cy="168.8" rx="14.62" ry="13.02"/><path class="cls-7" d="M213.66,166.35c0-16-10.64-29-23.77-29s-23.76,13-23.76,29Z"/><ellipse class="cls-6" cx="232.19" cy="166.35" rx="23.76" ry="29"/><ellipse class="cls-1" cx="226.53" cy="168.8" rx="14.62" ry="13.02"/><path class="cls-7" d="M256,166.35c0-16-10.64-29-23.77-29s-23.76,13-23.76,29Z"/><path class="cls-1" d="M206.13,220.73c-5.44-.33-11.08-.72-15.69-4.55-1.12-.92-3.32-1.81-1.8-3.85,1.76-2.36,2.7.11,3.83,1,7.78,5.86,16.29,4.08,24.71,2.22a21,21,0,0,0,9.61-4.94c.9-.81,2.12-2.3,3.36-1,1.47,1.5-.14,2.86-1.18,3.7C222.41,218.6,214.56,220.26,206.13,220.73Z"/></svg>