<svg id="Layer_1" data-name="Layer 1" xmlns="http://www.w3.org/2000/svg" viewBox="0 0 398.84 399.14"><defs><style>.cls-1{fill:#064057;}.cls-2{fill:#7cba95;}.cls-3{fill:#fefefe;}.cls-4{fill:#fdb51a;}.cls-5{fill:#fefefd;}.cls-6{fill:#fdfdfd;}.cls-7{fill:#fdfefd;}.cls-8{fill:#f9e955;}.cls-9{fill:#f5f4f3;}.cls-10{fill:#010201;}.cls-11{fill:#000201;}.cls-12,.cls-13{fill:#fff;stroke:#064057;stroke-miterlimit:10;}.cls-12{stroke-width:3px;}.cls-13{stroke-width:2px;}</style></defs><path class="cls-1" d="M177.09,336.87c-6.52-.35-13.83.44-21.13-.89-8.36-1.52-10.86-5-8.4-13.09,3.43-11.27,12.41-15.67,22.89-18a37.32,37.32,0,0,1,11.39-1c2.13.19,3.1-.1,3.26-2.78.8-13.6.24-27.29,2.83-40.76.41-2.14-.81-2.28-2.46-2.63-8.06-1.71-16.12-3.41-23.77-6.7-6.71-2.89-12.57-6.83-16.41-13.12-1.24-2-2.2-1.68-4-1.32-10.54,2.14-20.35.59-28.94-6.29-1.42-1.14-3-2.33-3.83-3.88-6.16-12.11-14.35-23.36-16.82-37.11-2-11.12-1.75-21.68,7.35-30.41,3.58-3.44,7.35-5.45,12.07-5.87,5.18-.46,11.18-7.17,10.78-12.23-.25-3.17,1.69-4.56,4.47-4.76a17.31,17.31,0,0,1,13.66,4.62c3.79,3.67,8.18,1.63,12.27,2.31,4.72.78,7.14-1.36,9.85-5.27,13.46-19.47,25.15-40.35,43.06-56.42C211.45,75.7,217.91,70.63,227,71c7.48.31,13,4.5,18.28,9,11,9.4,18.62,21.59,25.9,33.83,15.48,26,28.36,53.3,35,83.05,4.06,18.14,2.42,35.14-13,48.1-8.79,7.38-19.63,9.83-30.54,11.93-.81.16-1.64.23-2.47.33-3.13.38-4.3,1-3.73,5.17,1.19,8.86,1.24,17.89,2.4,26.8.12,1,.2,2,.26,3,.54,8,3,13.33,12.55,15,10.94,1.88,15.59,13,16.16,21.91.24,3.82-1.76,6.23-5.23,6.7-15,2-30.11,2.95-45.2.83-4.43-.62-6.95-3.42-6.74-8.31a34.3,34.3,0,0,1,1.57-9.28c6.05-18.64,3.31-37.49,1.55-56.31-.2-2.23-1.55-2.92-3.79-2.79-5.47.32-11,.61-16.45.5-2.83-.06-3,1.81-3.12,3.45-1.72,17.33-4.43,34.65-.92,52.09a73.73,73.73,0,0,1,1.25,9.37c.49,6.59-2.33,9.6-9,10.6C193.82,337.09,185.85,336.77,177.09,336.87Z"/><path class="cls-2" d="M162.68,142.2c5.4-8,10.34-15.24,15.25-22.53.94-1.4,1.66-2,3.52-.85,6.21,3.84,12.78,4.61,19.34.9,1.69-1,2.3-.26,3.2.83,9.54,11.52,23.66,11.76,34.15-1.82,1.88-2.43,3.14-3.31,6.29-1.34,8,5,13.81,3.62,22.84-4.78a267.18,267.18,0,0,1,14.78,27.33c9.15,18.86,16.94,38.22,21.34,58.77,3.29,15.35,1.91,29.85-9.94,41.66-7.9,7.87-18.2,10.91-28.66,12.76-30.19,5.34-60.44,6.34-90.5-1.14-20.1-5-32.6-14.16-33.36-44-.08-3.21.95-3.83,3.91-3.84,10.48-.07,21-.43,31.43-.7,1.27,0,2.54-.68,3.27,1.18a3.34,3.34,0,0,1-.38,3.54c-4.15,6.62-4,8.09.53,14.24,1.38,1.88,2.59,3.86,3.86,5.81,4.45,6.85,9.1,8.18,16.52,4.9,3.94-1.74,7.09,1.16,10.52,2.2,1.4.43,2.78,2,4,1.85,5.23-.84,7.73,2.94,10.91,5.75,15.53,13.72,33.76,10.74,48.6-.77,1.44-1.12,3.37-2.38,2.4-5.13-7.7,5.49-15.68,10.18-25.09,11.5-9.7,1.36-17.29-3.55-24.52-9-2.23-1.68-.36-4.31-.29-6.51,0-.27.37-.53.58-.79,2.37-2.9,2.4-7.84,4.88-9.49,2.65-1.77,6.14,2.52,9.7,3.12,8.16,1.38,15.16-.44,20.7-6.85,1.08-1.26,2.69-2.7.77-4.17s-2.45.89-3.12,1.94c-6,9.28-25.38,7.94-29.48-2.36a1.69,1.69,0,0,0-.56-.81c-9.3-6-11-18.45-20.6-24.12-1.77-1-1.53-2.73-1.48-4.42.25-7.15.64-14.31.61-21.46-.06-14.35-7.69-21.64-22-21.57C178.92,142.11,171.32,143.47,162.68,142.2Z"/><path class="cls-3" d="M224.44,74.44c9.44.25,15.19,4.53,20.55,9.27,7.65,6.75,13.05,15.37,18.86,23.65,1.23,1.74.46,2.63-.44,3.83-4.8,6.38-11.13,7.55-18.19,2.42-3.93-2.85-5.92-2.73-8.4,1.46a27.6,27.6,0,0,1-6.44,6.87c-7.82,6.43-18.34,4.54-24.27-4.61-2-3.09-3-3.76-6.16-1.31-4.62,3.57-10,2.85-15.15.79-2.09-.84-3.46-2.11-1.47-4.82,8-10.85,16-21.61,26.49-30.26C215.69,76.89,221.19,74.43,224.44,74.44Z"/><path class="cls-4" d="M128,167.61c-.73-6.07,2.45-14.43-8.81-13.64,3-6.69,8.51-7.74,14.12-7.82q27-.37,53.91-.13c6.64.06,13,6.17,13.92,12.76,1.23,8.77.47,17.62.76,26.43.08,2.35-1.19,2.67-3.11,2.73-8,.27-15.22,2.19-18.58,10.62-.7,1.75-2,1.4-3.27,1.43-16.79.46-33.57,1.47-50.38,1a13.92,13.92,0,0,1-4.9-.66c-2.31-.92-4.21-2.22-4.62-4.75-.48-3,2.59-2.43,4-3.53.9-.7,2.39-.83,3-1.67,4.06-5.49,6.55-2.48,10,1.05a19.19,19.19,0,0,0,26.21,1.67c9.13-7.27,11.26-18.89,5.3-29a20.59,20.59,0,0,0-25-8.9C134.76,157.43,131.7,162.36,128,167.61Z"/><path class="cls-3" d="M219.47,214.3c2.5-4.14,3.4-4.24,6.63-.68,3.68,4,3.74,7.43.22,13.56-3.65,6.34-6.32,7.59-13.28,6.19-.15-2.41,3.21-1.66,3.26-4.34-.09-.28-.92-.08-1.32.11-6.13,2.88-11.21,1.67-15.26-3.78-1-1.33-2.68-1.19-3.95-1.89a1.6,1.6,0,0,0-2.43.82c-.82,1.5.55,1.38,1.4,1.77,1.67.76,4.44,1.54,3.35,3.7-1,1.87-3.56,2.67-6.16,1.76-3.88-1.36-5.89-4.42-6.79-8-.81-3.19,1.66-5.11,4.23-6.6.85-.5,1.58-1.23,2.45-1.7,1.26-.67,1.79-1.66,1-2.81s-1.71-.17-2.56.25a20.25,20.25,0,0,0-6.71,5c-2,2.37-3,.72-3.33-.91-.63-2.79-.6-5.57,2.2-7.58,3.22-2.32,6.34-4.77,10.17-6.05,1.49-.5,3.24-1.23,2.4-3-.61-1.26-2.4-.25-3.61.08s-2.12,1-3.23,1.19c-1.64.23-3.38,2.72-4.82.62-1.09-1.58.41-3.53,1.3-5,5.49-9.34,24.58-8,30.24,2.18A32.75,32.75,0,0,1,219.47,214.3Z"/><path class="cls-5" d="M175.76,333.79a150.34,150.34,0,0,1-19.27-.93c-6-.75-7.74-3.34-5.82-9.15C154,313.57,162.43,310,171.76,308c11-2.44,21.29.51,31.48,4.18a4.22,4.22,0,0,1,2.9,3.47c.93,3.79.7,7.6,1.09,11.38.29,2.86-.95,4.58-4.06,5.12C194.62,333.59,186,333.83,175.76,333.79Z"/><path class="cls-6" d="M103.11,170.94c5.91.43,10-2.73,14.67-3.32,1.65-.21,3.15-.63,4.83,0,2.38.92,4.33,2.47,4.26,4.93-.08,2.27-2.88,1.72-4.38,2.23-4,1.37-8.27,2.14-12.41,3.19-1.1.28-2.66.72-2.39,2,.38,1.84,2.23,1.1,3.36.87,3.21-.67,6.4-1.51,9.53-2.49,2.53-.79,4.62-.54,6,1.87s-.53,4.23-2,5.54c-3.59,3.28-8.07,5-12.77,6.16a2.11,2.11,0,0,0-1.91,1.77c3.34.45,4,2.89,4.27,5.83a15.62,15.62,0,0,0,2,5c.78,1.54,2.07,2,2.68,0,.55-1.83,1.45-2.09,2.83-1.35a2.5,2.5,0,0,1,1.11,3c-1.43,6.62-10.42,10.6-16.76,7.32,1.75-1.45,4.67-.62,6.36-4.16-6.63,2.17-9.59-1.38-12.14-6.23-2.32-4.41-4.48-8.79-5.08-13.8-.3-2.47-.5-5-.9-7.39-1.58-9.52,2.26-16.82,9.34-22.7,3.73-3.09,15.59-3.59,19.45-1.05,1,.68,1.77,1.51,1.19,2.87-.7,1.62-1.77,2.8-3.66,2.9a42.36,42.36,0,0,0-12,2.83A10.22,10.22,0,0,0,103.11,170.94Z"/><path class="cls-7" d="M261.29,334.5c-7.3,0-13.93.74-20.56-.56-5.94-1.16-7.67-3.3-6.72-9.17,1.77-10.93,4.66-13.45,17.83-15.8a43.64,43.64,0,0,1,15.79-.16c9.09,1.67,16.75,10.1,17.22,19.28.15,2.93-1.33,4.14-3.91,4.78C274.24,334.52,267.35,333.46,261.29,334.5Z"/><path class="cls-2" d="M205,308.79c-4.88-1.33-9.44-2.8-14.11-3.75-2.2-.44-2.15-1.57-2.12-3.11.22-11.13,0-22.28,1.1-33.4.2-2.11.74-3.11,2.93-2.76a8.34,8.34,0,0,0,1,0c4.28.11,9.84-1.36,12.48.78s0,7.77-.45,11.81C204.74,288.45,205.19,298.56,205,308.79Z"/><path class="cls-2" d="M238.55,308.81c.51-12.21.78-24.31-.74-36.35-.35-2.77.44-3.73,3.27-3.91,4.11-.27,8.19-1.07,12.29-1.64.43,4.09,1,8.17,1.26,12.28a209.16,209.16,0,0,0,3,22.72c.23,1.37,1.09,2.73-1.5,3.18C250.26,306.08,244.51,307.51,238.55,308.81Z"/><path class="cls-2" d="M131.73,233.22c-7,0-13.54-1.24-18.63-6.56a19,19,0,0,1-2.87-4c-1.71-3.06-2-5.31,2.8-4.8,3.49.37,5.86-2,8.11-4.19,1.63-1.57,3-2.08,5.26-1a10.15,10.15,0,0,0,5.72,1.22c5.17-1,6.4,1.76,6.92,6a33,33,0,0,0,2.15,8.61c1.24,3,.55,4.17-2.53,4.32C136.35,232.94,134,233.09,131.73,233.22Z"/><path class="cls-8" d="M165,176c-.1,9.9-8.45,18.21-18,18-8.49-.22-16.37-9-16.29-18.08.09-9.91,8.43-18.52,17.73-18.29C158.17,157.85,165.13,165.57,165,176Z"/><path class="cls-9" d="M131.87,203.88c2,1.1,5.82-1.58,5.95,2.28.12,3.38-3,4.37-6.16,3.79-2.24-.41-5.87,1.33-5.75-3.17C126,202,129.87,205,131.87,203.88Z"/><path class="cls-10" d="M186,152.73c3.12.22,6.35-.38,9.23,1.36a6.88,6.88,0,0,1,3.7,7c-.33,3.09-2.72,4.07-5.21,4.49a37.83,37.83,0,0,1-17.25-.75c-2.54-.75-4.45-2.25-4.45-5.27s1.76-4.48,4.18-5.58C179.34,152.59,182.72,153,186,152.73Z"/><path class="cls-11" d="M159.07,176.94c-.13,8-5.62,13.45-13.46,13.33-5.77-.09-10.75-6.36-10.56-13.29.19-6.7,6-13,11.9-13C153.62,164.05,159.18,170,159.07,176.94Z"/><ellipse class="cls-12" cx="235.31" cy="166.9" rx="23.76" ry="29"/><ellipse class="cls-1" cx="229.65" cy="169.35" rx="14.62" ry="13.02"/><path class="cls-13" d="M259.07,166.9c0-16-10.64-29-23.76-29s-23.77,13-23.77,29Z"/></svg>